<svg width="182" height="60" viewBox="0 0 182 60" fill="none" xmlns="http://www.w3.org/2000/svg">
<path d="M174.676 27.3936C175.645 25.5792 176.197 23.5056 176.197 21.3024C176.197 14.1264 170.38 8.30883 163.204 8.30883C161.985 8.30883 160.809 8.47683 159.69 8.79363C157.338 4.95842 153.1 2.40002 148.266 2.40002C140.86 2.40002 134.86 8.40962 134.86 15.816C134.86 17.5056 135.172 19.1232 135.748 20.6112C129.978 21.8544 125.653 26.9952 125.653 33.144C125.653 37.0656 127.415 40.584 130.194 42.9312C130.069 43.6272 130.002 44.3472 130.002 45.0816C130.002 51.936 135.561 57.4896 142.41 57.4896C144.364 57.4896 146.207 57.0384 147.849 56.2368C149.687 58.5312 152.519 60 155.687 60C159.604 60 163.002 57.7632 164.663 54.4848C165.369 54.5952 166.098 54.648 166.842 54.648C174.993 54.648 181.602 48.0432 181.602 39.888C181.602 34.6176 178.837 29.9856 174.671 27.384L174.676 27.3936Z" fill="#578246"/>
<path d="M174.676 24.9936C175.645 23.1792 176.197 21.1056 176.197 18.9024C176.197 11.7264 170.38 5.9088 163.204 5.9088C161.985 5.9088 160.809 6.0768 159.69 6.3936C157.338 2.5584 153.1 0 148.266 0C140.86 0 134.86 6.0096 134.86 13.416C134.86 15.1056 135.172 16.7232 135.748 18.2112C129.978 19.4544 125.653 24.5952 125.653 30.744C125.653 34.6656 127.415 38.184 130.194 40.5312C130.069 41.2272 130.002 41.9472 130.002 42.6816C130.002 49.536 135.561 55.0896 142.41 55.0896C144.364 55.0896 146.207 54.6384 147.849 53.8368C149.687 56.1312 152.519 57.6 155.687 57.6C159.604 57.6 163.002 55.3632 164.663 52.0848C165.369 52.1952 166.098 52.248 166.842 52.248C174.993 52.248 181.602 45.6432 181.602 37.488C181.602 32.2176 178.837 27.5856 174.671 24.984L174.676 24.9936Z" fill="#99C08E"/>
<path d="M145.55 36.8112C145.411 36.8112 145.214 36.8208 144.964 36.8448C144.71 36.8688 144.527 36.8784 144.412 36.8784C143.975 36.8784 143.659 36.7632 143.462 36.5328C143.265 36.3024 143.169 35.9328 143.169 35.4288C143.169 35.2896 143.251 34.5648 143.409 33.2496C145.022 32.7216 146.601 32.4528 148.142 32.4528C148.257 32.4528 148.43 32.4576 148.66 32.472C148.891 32.4816 149.073 32.4912 149.212 32.4912L151.631 32.352C151.54 32.1456 151.487 31.8624 151.478 31.5072C151.468 31.152 151.425 30.8736 151.358 30.6768C151.291 30.48 151.137 30.3696 150.907 30.3504C150.561 30.2832 149.145 30.216 146.654 30.1584C144.167 30.1008 142.713 30.096 142.3 30.1392C141.772 30.2304 141.316 30.2592 140.937 30.2256C140.558 30.192 140.275 29.9424 140.092 29.4816C139.747 28.7232 139.641 27.8688 139.78 26.9232C139.828 26.6928 140.02 26.4624 140.366 26.232C140.711 26.0016 141.518 25.8192 142.785 25.68C144.052 25.5408 144.95 25.5168 145.483 25.6128H149.822C150.638 25.6128 151.209 25.6032 151.531 25.5792C155.769 25.5312 158.212 25.512 158.855 25.512C159.499 25.512 160.905 25.5696 163.07 25.6848C165.235 25.8 166.377 25.8576 166.492 25.8576C166.607 25.8576 166.814 25.8912 167.116 25.9632C167.601 26.0784 167.927 26.2464 168.1 26.4624C168.273 26.6832 168.326 27.0336 168.254 27.5184C168.23 27.7008 168.206 27.864 168.187 28.0032C168.163 28.1424 168.139 28.2672 168.119 28.3824C168.095 28.4976 168.052 28.5936 167.98 28.6752C167.913 28.7568 167.865 28.8288 167.841 28.9008C167.817 28.9728 167.75 29.0352 167.635 29.0928C167.519 29.1504 167.433 29.1984 167.375 29.232C167.318 29.2656 167.203 29.3088 167.03 29.352C166.857 29.4 166.732 29.4336 166.651 29.4576C166.569 29.4816 166.401 29.5248 166.151 29.5968C165.897 29.664 165.7 29.712 165.566 29.736C165.311 29.8032 163.838 29.88 161.14 29.9616C158.443 30.0432 156.959 30.1296 156.681 30.2208C156.59 30.2448 156.537 30.3456 156.527 30.5328C156.518 30.7152 156.518 30.912 156.527 31.1184C156.537 31.3248 156.532 31.5456 156.508 31.776C156.508 31.8432 156.518 31.9488 156.542 32.088C156.566 32.2272 156.575 32.3184 156.575 32.3664C158.927 32.4144 160.943 32.4576 162.623 32.5056C163.06 32.5296 163.463 32.6208 163.833 32.784C163.972 32.832 164.092 32.9232 164.198 33.0624C164.303 33.2016 164.351 33.3264 164.351 33.4416V33.9264C164.351 34.5936 164.251 35.136 164.059 35.5488C163.862 35.9616 163.454 36.2736 162.83 36.48C162.715 36.528 162.35 36.5568 161.74 36.5664C161.131 36.576 160.569 36.6048 160.065 36.6528C159.556 36.7008 159.307 36.792 159.307 36.9312C159.283 37.0464 159.292 37.2288 159.34 37.4832C159.388 37.7376 159.407 37.92 159.407 38.0352C159.407 38.0592 159.417 38.256 159.441 38.6208C159.465 38.9904 159.475 39.2304 159.475 39.3456L163.795 39.624C163.771 39.9216 163.756 40.5264 163.742 41.4384C163.727 42.3504 163.655 43.056 163.516 43.5648C163.492 43.656 163.411 43.7616 163.276 43.8768C163.137 43.992 163.022 44.0496 162.931 44.0496C162.609 44.0736 161.27 44.0832 158.923 44.0832C158.39 44.0832 157.622 44.0736 156.609 44.0496C155.596 44.0256 154.823 44.016 154.295 44.016C153.441 44.016 152.159 44.0208 150.441 44.0352C148.723 44.0448 147.441 44.0544 146.587 44.0544H143.788C143.467 44.0544 143.217 43.9632 143.044 43.776C142.871 43.5936 142.785 43.3488 142.785 43.0512C142.785 42.96 142.795 42.8544 142.819 42.7392C142.819 42.672 142.838 42.432 142.871 42.0288C142.905 41.6256 142.958 41.3328 143.025 41.1456C143.207 40.7328 143.529 40.4544 143.995 40.3152C144.407 40.176 145.003 40.0272 145.775 39.864C146.548 39.7008 147.004 39.6096 147.139 39.5856C147.46 39.5184 147.695 39.4464 147.849 39.3792C147.998 39.312 148.156 39.1824 148.315 39C148.473 38.8176 148.555 38.5728 148.555 38.2752C148.555 38.112 148.579 37.9392 148.622 37.7568C148.67 37.5744 148.732 37.3584 148.814 37.1184C148.895 36.8784 148.948 36.7104 148.967 36.6192C148.531 36.7344 148.3 36.792 148.276 36.792C147.585 36.816 146.942 36.8256 146.342 36.8256H145.545L145.55 36.8112ZM150.422 12.4128C152.956 12.2304 154.382 12.1248 154.708 12.1008C155.236 12.1008 155.827 12.2832 156.47 12.6528C156.609 12.72 156.734 12.864 156.849 13.0848C156.964 13.3056 157.022 13.5072 157.022 13.6896C156.998 15.12 157.171 16.3968 157.54 17.5248C157.607 17.7552 158.169 18.12 159.215 18.6144C160.262 19.1088 161.006 19.416 161.443 19.5312C162.892 19.9248 164.726 20.4768 166.939 21.192C167.308 21.3072 167.567 21.456 167.716 21.6432C167.865 21.8256 167.86 22.104 167.697 22.4736C167.63 22.656 167.563 22.7952 167.505 22.8864C167.447 22.9776 167.399 23.064 167.366 23.1456C167.332 23.2272 167.279 23.3712 167.212 23.5776C167.164 23.808 167.116 24.0576 167.059 24.3216C167.001 24.5856 166.972 24.7488 166.972 24.8064C166.972 24.864 166.915 24.9408 166.799 25.032C166.684 25.1232 166.574 25.176 166.473 25.1856C166.367 25.1952 166.156 25.224 165.835 25.272C165.695 25.296 165.307 25.3728 164.659 25.4976C164.015 25.6224 163.531 25.6896 163.209 25.6896C162.724 25.6896 162.23 25.4928 161.721 25.104C161.467 24.8736 160.142 24.1728 157.747 22.9968C155.351 21.8208 153.724 21.0384 152.875 20.6448C152.438 20.4624 151.943 20.496 151.387 20.7504C150.302 21.2112 148.991 21.8688 147.446 22.7184C146.731 23.112 145.929 23.4672 145.046 23.7888C144.158 24.1104 143.414 24.2496 142.819 24.2016C142.358 24.1536 142.046 24.0624 141.887 23.9232C141.724 23.784 141.609 23.4864 141.542 23.0256C141.475 22.632 141.369 22.2288 141.23 21.816C141.115 21.4224 141.047 21.12 141.023 20.8992C140.999 20.6784 141.076 20.472 141.249 20.2752C141.422 20.0784 141.59 19.9344 141.748 19.8432C141.907 19.752 142.233 19.5888 142.718 19.3584C143.457 18.9648 144.695 18.3744 146.433 17.5776C148.171 16.7808 149.217 16.3056 149.563 16.1424C149.956 15.96 150.22 15.7104 150.359 15.3984C150.499 15.0864 150.58 14.688 150.599 14.208C150.599 14.1408 150.542 13.5408 150.427 12.4128H150.422ZM152.495 39.0576C152.495 39.4032 152.678 39.576 153.047 39.576H153.187C153.345 39.576 153.7 39.552 154.243 39.5088C154.785 39.4608 155.203 39.4272 155.505 39.4032C155.572 39.3792 155.659 39.336 155.764 39.264C155.87 39.1968 155.918 39.1392 155.918 39.0912C155.942 38.6544 155.951 38.2272 155.951 37.8144C155.951 37.2864 155.942 36.7536 155.918 36.2256C155.918 36.1776 155.855 36.12 155.726 36.0528C155.601 35.9856 155.491 35.9472 155.399 35.9472H155.366C155.135 35.9712 154.315 36.0864 152.913 36.2928C152.659 37.8576 152.519 38.7216 152.5 38.8848V39.0576H152.495Z" fill="#578246"/>
<path d="M145.679 38.7313C145.539 38.7313 145.343 38.7409 145.093 38.7649C144.839 38.7889 144.656 38.7985 144.541 38.7985C144.104 38.7985 143.787 38.6833 143.591 38.4529C143.394 38.2225 143.298 37.8529 143.298 37.3489C143.298 37.2097 143.379 36.4849 143.538 35.1697C145.151 34.6417 146.73 34.3729 148.271 34.3729C148.386 34.3729 148.559 34.3777 148.789 34.3921C149.019 34.4017 149.202 34.4113 149.341 34.4113L151.76 34.2721C151.669 34.0657 151.616 33.7825 151.607 33.4273C151.592 33.0721 151.554 32.7937 151.487 32.5969C151.419 32.4001 151.266 32.2897 151.035 32.2705C150.69 32.2033 149.274 32.1361 146.783 32.0785C144.296 32.0209 142.842 32.0161 142.429 32.0593C141.901 32.1505 141.445 32.1793 141.066 32.1457C140.687 32.1121 140.403 31.8625 140.221 31.4017C139.875 30.6433 139.77 29.7889 139.909 28.8433C139.957 28.6129 140.149 28.3825 140.495 28.1521C140.84 27.9217 141.647 27.7393 142.914 27.6001C144.181 27.4609 145.079 27.4369 145.611 27.5329H149.951C150.767 27.5329 151.338 27.5233 151.659 27.4993C155.898 27.4513 158.341 27.4321 158.984 27.4321C159.627 27.4321 161.034 27.4897 163.199 27.6049C165.363 27.7201 166.506 27.7777 166.621 27.7777C166.736 27.7777 166.943 27.8113 167.245 27.8833C167.73 27.9985 168.056 28.1665 168.229 28.3825C168.402 28.6033 168.455 28.9537 168.383 29.4385C168.359 29.6209 168.335 29.7841 168.315 29.9233C168.291 30.0625 168.267 30.1873 168.248 30.3025C168.224 30.4177 168.181 30.5137 168.109 30.5953C168.042 30.6769 167.994 30.7489 167.97 30.8209C167.946 30.8881 167.879 30.9553 167.763 31.0129C167.648 31.0705 167.562 31.1185 167.504 31.1521C167.447 31.1857 167.331 31.2289 167.159 31.2721C166.986 31.3201 166.861 31.3537 166.779 31.3777C166.698 31.4017 166.53 31.4449 166.28 31.5169C166.031 31.5889 165.829 31.6321 165.695 31.6561C165.44 31.7233 163.967 31.8001 161.269 31.8817C158.571 31.9633 157.088 32.0497 156.81 32.1409C156.719 32.1649 156.666 32.2657 156.656 32.4529C156.647 32.6353 156.647 32.8321 156.656 33.0385C156.666 33.2449 156.661 33.4657 156.637 33.6961C156.637 33.7633 156.647 33.8689 156.671 34.0081C156.695 34.1473 156.704 34.2385 156.704 34.2865C159.056 34.3345 161.072 34.3777 162.752 34.4257C163.189 34.4497 163.592 34.5409 163.962 34.7041C164.101 34.7521 164.221 34.8433 164.327 34.9825C164.432 35.1217 164.48 35.2465 164.48 35.3617V35.8465C164.48 36.5137 164.384 37.0561 164.187 37.4689C163.991 37.8817 163.583 38.1937 162.959 38.4001C162.843 38.4481 162.479 38.4769 161.869 38.4865C161.259 38.4961 160.698 38.5249 160.194 38.5729C159.685 38.6209 159.435 38.7121 159.435 38.8513C159.411 38.9665 159.426 39.1489 159.469 39.4033C159.517 39.6577 159.536 39.8401 159.536 39.9553C159.536 39.9793 159.546 40.1761 159.57 40.5409C159.594 40.9105 159.603 41.1505 159.603 41.2657L163.923 41.5441C163.899 41.8417 163.885 42.4465 163.871 43.3585C163.861 44.2705 163.784 44.9761 163.645 45.4849C163.621 45.5761 163.539 45.6817 163.405 45.7969C163.266 45.9121 163.151 45.9697 163.059 45.9697C162.738 45.9937 161.399 46.0033 159.051 46.0033C158.523 46.0033 157.751 45.9937 156.738 45.9697C155.725 45.9457 154.952 45.9361 154.424 45.9361C153.57 45.9361 152.288 45.9409 150.57 45.9553C148.851 45.9649 147.57 45.9745 146.715 45.9745H143.917C143.595 45.9745 143.346 45.8833 143.173 45.6961C143 45.5137 142.914 45.2689 142.914 44.9713C142.914 44.8801 142.923 44.7745 142.947 44.6593C142.947 44.5921 142.967 44.3521 143 43.9489C143.034 43.5457 143.087 43.2529 143.154 43.0657C143.336 42.6529 143.663 42.3745 144.123 42.2353C144.536 42.0961 145.131 41.9473 145.904 41.7841C146.677 41.6209 147.133 41.5297 147.267 41.5057C147.589 41.4385 147.824 41.3665 147.978 41.2993C148.127 41.2321 148.285 41.1025 148.443 40.9201C148.602 40.7377 148.683 40.4929 148.683 40.1953C148.683 40.0321 148.707 39.8593 148.751 39.6769C148.799 39.4945 148.861 39.2785 148.943 39.0385C149.024 38.7985 149.077 38.6305 149.096 38.5393C148.659 38.6545 148.429 38.7121 148.405 38.7121C147.714 38.7361 147.071 38.7457 146.471 38.7457H145.674L145.679 38.7313ZM150.551 14.3329C153.085 14.1505 154.511 14.0449 154.837 14.0209C155.365 14.0209 155.955 14.2033 156.599 14.5729C156.738 14.6401 156.863 14.7841 156.978 15.0049C157.093 15.2257 157.151 15.4273 157.151 15.6097C157.127 17.0401 157.299 18.3169 157.669 19.4449C157.736 19.6753 158.298 20.0401 159.344 20.5345C160.391 21.0289 161.135 21.3361 161.571 21.4513C163.021 21.8449 164.855 22.3969 167.067 23.1121C167.437 23.2273 167.696 23.3761 167.845 23.5633C167.994 23.7457 167.989 24.0241 167.826 24.3937C167.759 24.5761 167.691 24.7153 167.634 24.8065C167.576 24.8977 167.528 24.9841 167.495 25.0657C167.461 25.1473 167.408 25.2913 167.341 25.4977C167.293 25.7281 167.24 25.9777 167.187 26.2417C167.13 26.5057 167.101 26.6689 167.101 26.7265C167.101 26.7841 167.043 26.8609 166.928 26.9521C166.813 27.0433 166.703 27.0961 166.602 27.1057C166.496 27.1153 166.285 27.1441 165.963 27.1921C165.824 27.2161 165.431 27.2929 164.787 27.4177C164.144 27.5425 163.659 27.6097 163.338 27.6097C162.853 27.6097 162.359 27.4129 161.85 27.0241C161.595 26.7937 160.271 26.0929 157.875 24.9169C155.48 23.7409 153.853 22.9585 153.003 22.5649C152.567 22.3825 152.072 22.4161 151.515 22.6705C150.431 23.1313 149.12 23.7889 147.575 24.6385C146.859 25.0321 146.058 25.3873 145.175 25.7089C144.287 26.0305 143.543 26.1697 142.947 26.1217C142.487 26.0737 142.175 25.9825 142.016 25.8433C141.853 25.7041 141.738 25.4065 141.671 24.9457C141.603 24.5521 141.498 24.1489 141.359 23.7361C141.243 23.3425 141.176 23.0401 141.152 22.8193C141.128 22.5985 141.205 22.3921 141.378 22.1953C141.551 21.9985 141.719 21.8545 141.877 21.7633C142.04 21.6721 142.362 21.5089 142.847 21.2785C143.586 20.8849 144.824 20.2945 146.562 19.4977C148.299 18.7009 149.346 18.2257 149.691 18.0625C150.085 17.8801 150.349 17.6305 150.488 17.3185C150.627 17.0065 150.709 16.6081 150.728 16.1281C150.728 16.0609 150.671 15.4609 150.555 14.3329H150.551ZM152.624 40.9777C152.624 41.3233 152.807 41.4961 153.176 41.4961H153.315C153.479 41.4961 153.829 41.4721 154.371 41.4289C154.914 41.3809 155.331 41.3473 155.634 41.3233C155.701 41.2993 155.787 41.2561 155.893 41.1841C155.999 41.1121 156.047 41.0593 156.047 41.0113C156.071 40.5745 156.08 40.1473 156.08 39.7345C156.08 39.2065 156.071 38.6737 156.047 38.1457C156.047 38.0977 155.984 38.0401 155.855 37.9729C155.725 37.9057 155.619 37.8673 155.528 37.8673H155.495C155.264 37.8913 154.448 38.0065 153.042 38.2129C152.787 39.7777 152.648 40.6417 152.629 40.8049V40.9777H152.624Z" fill="white"/>
<path d="M20.5193 9.62861C21.7385 9.65741 23.4089 9.60461 25.1945 9.62861C28.9913 9.69101 37.9865 9.59981 39.7721 16.6414C41.8553 24.8638 40.1705 42.355 39.3737 45.2638C38.5817 48.1726 37.1945 52.7998 29.9897 52.7998H12.8681C11.6777 52.7998 2.55772 52.339 0.968918 43.6126C-0.615083 34.891 0.176917 22.8622 0.359318 20.251C0.541718 17.6446 1.03612 10.435 9.89212 9.90221C15.3929 9.57581 18.3161 9.57581 20.5193 9.62861Z" fill="#BC3C6A"/>
<path d="M20.5193 7.2287C21.7385 7.2575 23.4089 7.2047 25.1945 7.2287C28.9913 7.2911 37.9865 7.1999 39.7721 14.2415C41.8553 22.4639 40.1705 39.9551 39.3737 42.8639C38.5817 45.7727 37.1945 50.3999 29.9897 50.3999H12.8681C11.6777 50.3999 2.55772 49.9391 0.968918 41.2127C-0.615083 32.4911 0.176917 20.4623 0.359318 17.8511C0.541718 15.2447 1.03612 8.0351 9.89212 7.5023C15.3929 7.1759 18.3161 7.1759 20.5193 7.2287Z" fill="#F885A7"/>
<path d="M18.8535 27.5711C18.8199 27.1487 18.8055 26.7839 18.8151 26.4767C18.8247 26.1695 18.9111 25.9103 19.0791 25.6991C19.2471 25.4879 19.5159 25.3391 19.8855 25.2479C20.6967 25.0703 21.1623 24.9839 21.2871 24.9839C21.7095 24.9503 22.0407 24.9503 22.2759 24.9839C22.5159 25.0175 22.6791 25.1183 22.7751 25.2863C22.8711 25.4543 22.9575 25.7759 23.0247 26.2511C23.0439 26.2847 23.0487 26.4287 23.0487 26.6735C23.0487 26.9183 23.0487 27.1535 23.0631 27.3743C23.0727 27.5951 23.0919 27.7055 23.1303 27.7055C23.5863 27.7055 24.6327 27.7343 26.2695 27.7967C27.9063 27.8591 28.9431 27.8879 29.3847 27.8879L31.6263 27.6767C31.6791 27.6959 31.7559 27.7343 31.8519 27.7967C31.9479 27.8591 32.0679 27.9839 32.2071 28.1663C32.3463 28.3535 32.3991 28.5503 32.3655 28.7615C32.3463 28.8671 32.2311 29.5631 32.0247 30.8447C31.7799 30.8639 31.6455 30.8735 31.6263 30.8735C31.5399 30.8735 28.4487 30.8399 22.3623 30.7679C22.0263 30.7679 21.1239 30.7919 19.6407 30.8351C18.1623 30.8783 17.3079 30.9023 17.0823 30.9023C16.6599 30.9215 15.5847 30.9119 13.8615 30.8735C12.1383 30.8399 11.0727 30.8111 10.6647 30.7919C10.5591 30.7919 10.3047 30.8111 9.90154 30.8447C9.49834 30.8783 9.23914 30.8975 9.13354 30.8975C8.97514 30.8975 8.84554 30.8831 8.73994 30.8591C8.63434 30.8303 8.55754 30.7775 8.51434 30.6863C8.47114 30.5999 8.44234 30.5231 8.43274 30.4607C8.42314 30.3983 8.41354 30.2735 8.40874 30.0767C8.39914 29.8847 8.39434 29.7311 8.39434 29.6255C8.36074 29.3087 8.36074 28.8527 8.39434 28.2527C8.41354 27.9359 8.57194 27.7775 8.86954 27.7775C9.31114 27.7583 10.6023 27.7679 12.7479 27.8063C14.8935 27.8399 16.2231 27.8495 16.7367 27.8303C16.9479 27.8303 17.6535 27.7439 18.8487 27.5663L18.8535 27.5711ZM11.6199 17.8559C11.7591 17.8367 11.9511 17.7983 12.1863 17.7359C12.4263 17.6735 12.6327 17.6303 12.8055 17.6015C12.9831 17.5775 13.1559 17.5535 13.3335 17.5343C16.4151 17.4287 18.8007 17.3759 20.4903 17.3759C22.4103 17.3759 24.4599 17.4383 26.6439 17.5583C27.2583 17.5583 27.6375 17.5727 27.7767 17.5967C27.9159 17.6255 28.1127 17.6639 28.3575 17.7167C28.6023 17.7695 28.7943 17.8511 28.9239 17.9663C29.0583 18.0815 29.1495 18.2255 29.2023 18.4031C29.2215 18.4751 29.2455 18.5615 29.2839 18.6671C29.3559 18.9503 29.3991 19.1663 29.4135 19.3295C29.4327 19.5215 29.4471 19.7183 29.4663 19.9103C29.5383 19.9439 29.5575 20.6831 29.5335 22.1279C29.5047 23.5727 29.4951 24.3119 29.4951 24.3455C29.5143 24.8735 29.4087 25.2623 29.1783 25.5071C28.9479 25.7519 28.5783 25.8863 28.0695 25.9055C27.9111 25.9055 27.6807 25.8911 27.3831 25.8671C27.0855 25.8383 26.8647 25.8287 26.7207 25.8287C25.9623 25.8479 25.5687 24.8591 25.5303 22.8719C25.5303 22.2383 25.4487 21.8495 25.2807 21.7103C25.1127 21.5711 24.7287 21.4799 24.1335 21.4463C24.0471 21.4463 23.9751 21.4367 23.9223 21.4175C22.3911 21.3311 21.4503 21.2879 21.0951 21.2879C18.4743 21.2351 15.9735 21.2255 13.5975 21.2591H12.8583C12.6999 21.2591 12.5415 21.2351 12.3831 21.1919C12.2247 21.1487 12.1191 21.1199 12.0663 21.1151C12.0135 21.1055 11.9607 21.0335 11.9079 20.9039C11.8551 20.7743 11.8263 20.6735 11.8263 20.6159C11.8263 20.5583 11.8167 20.3999 11.8023 20.1551C11.7831 19.9103 11.7687 19.7039 11.7495 19.5455C11.6631 18.4367 11.6199 17.8751 11.6199 17.8559ZM19.5927 31.5839C20.6151 31.5839 21.8103 31.6655 23.1831 31.8335C24.5559 32.0015 25.7175 32.2175 26.6679 32.4815C28.2855 32.9567 29.1831 33.8015 29.3607 35.0159C29.4135 35.3327 29.4423 35.6255 29.4423 35.8895C29.4423 37.0703 28.9767 38.0111 28.0407 38.7119C27.4071 39.1871 26.8839 39.5615 26.4711 39.8351C26.0583 40.1087 25.5351 40.3679 24.9015 40.6127C24.2679 40.8575 23.6343 40.9919 23.0007 41.0111C22.7559 41.0111 22.1175 41.0399 21.0855 41.1023C20.0583 41.1647 19.3671 41.1935 19.0119 41.1935C18.5175 41.1935 18.0807 41.1599 17.6919 41.0879C17.6055 41.0879 17.4807 41.0687 17.3223 41.0351C16.5831 40.9103 16.0215 40.8095 15.6327 40.7327C15.2439 40.6559 14.7735 40.4927 14.2215 40.2431C13.6647 39.9983 13.1943 39.6815 12.8103 39.2927C12.1047 38.6063 11.7543 37.9631 11.7543 37.3631C11.7543 36.1295 11.9319 35.2175 12.2823 34.6175C13.2663 32.9615 15.2919 31.9775 18.3543 31.6607C18.7575 31.6079 19.1751 31.5791 19.5927 31.5791V31.5839ZM23.4711 37.7327C23.9127 37.7327 24.2871 37.5551 24.5943 37.2047C24.9015 36.8543 25.0551 36.4223 25.0551 35.9087C25.0551 35.1695 24.6519 34.7135 23.8407 34.5359C22.9767 34.3583 21.2631 34.2719 18.6903 34.2719H18.6663C18.4215 34.2719 18.2055 34.3151 18.0183 34.4015C17.8359 34.4879 17.6823 34.6271 17.5719 34.8095C17.4567 34.9919 17.3799 35.1551 17.3319 35.2991C17.2887 35.4383 17.2311 35.6399 17.1591 35.9039C17.1255 36.0287 17.1063 36.1439 17.1063 36.2495C17.1063 36.5327 17.2071 36.7583 17.4087 36.9359C17.6103 37.1135 17.8599 37.2239 18.1623 37.2815C18.4599 37.3535 18.8679 37.4111 19.3767 37.4639C19.8855 37.5167 20.3367 37.5503 20.7207 37.5695C21.1095 37.5887 21.6039 37.6127 22.2135 37.6463C22.8183 37.6799 23.2119 37.7087 23.3895 37.7279H23.4711V37.7327Z" fill="#BC3C6A"/>
<path d="M18.8535 29.0111C18.8199 28.5887 18.8055 28.2239 18.8151 27.9167C18.8247 27.6095 18.9111 27.3503 19.0791 27.1391C19.2471 26.9279 19.5159 26.7791 19.8855 26.6879C20.6967 26.5103 21.1623 26.4239 21.2871 26.4239C21.7095 26.3903 22.0407 26.3903 22.2759 26.4239C22.5159 26.4575 22.6791 26.5583 22.7751 26.7263C22.8711 26.8943 22.9575 27.2159 23.0247 27.6911C23.0439 27.7247 23.0487 27.8687 23.0487 28.1135C23.0487 28.3583 23.0487 28.5935 23.0631 28.8143C23.0727 29.0351 23.0919 29.1455 23.1303 29.1455C23.5863 29.1455 24.6327 29.1743 26.2695 29.2367C27.9063 29.2991 28.9431 29.3279 29.3847 29.3279L31.6263 29.1167C31.6791 29.1359 31.7559 29.1743 31.8519 29.2367C31.9479 29.2991 32.0679 29.4239 32.2071 29.6063C32.3463 29.7935 32.3991 29.9903 32.3655 30.2015C32.3463 30.3071 32.2311 31.0031 32.0247 32.2847C31.7799 32.3039 31.6455 32.3135 31.6263 32.3135C31.5399 32.3135 28.4487 32.2799 22.3623 32.2079C22.0263 32.2079 21.1239 32.2319 19.6407 32.2751C18.1623 32.3183 17.3079 32.3423 17.0823 32.3423C16.6599 32.3615 15.5847 32.3519 13.8615 32.3135C12.1383 32.2799 11.0727 32.2511 10.6647 32.2319C10.5591 32.2319 10.3047 32.2511 9.90154 32.2847C9.49834 32.3183 9.23914 32.3375 9.13354 32.3375C8.97514 32.3375 8.84554 32.3231 8.73994 32.2991C8.63434 32.2703 8.55754 32.2175 8.51434 32.1263C8.47114 32.0399 8.44234 31.9631 8.43274 31.9007C8.42314 31.8383 8.41354 31.7135 8.40874 31.5167C8.39914 31.3247 8.39434 31.1711 8.39434 31.0655C8.36074 30.7487 8.36074 30.2927 8.39434 29.6927C8.41354 29.3759 8.57194 29.2175 8.86954 29.2175C9.31114 29.1983 10.6023 29.2079 12.7479 29.2463C14.8935 29.2799 16.2231 29.2895 16.7367 29.2703C16.9479 29.2703 17.6535 29.1839 18.8487 29.0063L18.8535 29.0111ZM11.6199 19.2959C11.7591 19.2767 11.9511 19.2383 12.1863 19.1759C12.4263 19.1135 12.6327 19.0703 12.8055 19.0415C12.9831 19.0175 13.1559 18.9935 13.3335 18.9743C16.4151 18.8687 18.8007 18.8159 20.4903 18.8159C22.4103 18.8159 24.4599 18.8783 26.6439 18.9983C27.2583 18.9983 27.6375 19.0127 27.7767 19.0367C27.9159 19.0655 28.1127 19.1039 28.3575 19.1567C28.6023 19.2095 28.7943 19.2911 28.9239 19.4063C29.0583 19.5215 29.1495 19.6655 29.2023 19.8431C29.2215 19.9151 29.2455 20.0015 29.2839 20.1071C29.3559 20.3903 29.3991 20.6063 29.4135 20.7695C29.4327 20.9615 29.4471 21.1583 29.4663 21.3503C29.5383 21.3839 29.5575 22.1231 29.5335 23.5679C29.5047 25.0127 29.4951 25.7519 29.4951 25.7855C29.5143 26.3135 29.4087 26.7023 29.1783 26.9471C28.9479 27.1919 28.5783 27.3263 28.0695 27.3455C27.9111 27.3455 27.6807 27.3311 27.3831 27.3071C27.0855 27.2783 26.8647 27.2687 26.7207 27.2687C25.9623 27.2879 25.5687 26.2991 25.5303 24.3119C25.5303 23.6783 25.4487 23.2895 25.2807 23.1503C25.1127 23.0111 24.7287 22.9199 24.1335 22.8863C24.0471 22.8863 23.9751 22.8767 23.9223 22.8575C22.3911 22.7711 21.4503 22.7279 21.0951 22.7279C18.4743 22.6751 15.9735 22.6655 13.5975 22.6991H12.8583C12.6999 22.6991 12.5415 22.6751 12.3831 22.6319C12.2247 22.5887 12.1191 22.5599 12.0663 22.5551C12.0135 22.5455 11.9607 22.4735 11.9079 22.3439C11.8551 22.2143 11.8263 22.1135 11.8263 22.0559C11.8263 21.9983 11.8167 21.8399 11.8023 21.5951C11.7831 21.3503 11.7687 21.1439 11.7495 20.9855C11.6631 19.8767 11.6199 19.3151 11.6199 19.2959ZM19.5927 33.0239C20.6151 33.0239 21.8103 33.1055 23.1831 33.2735C24.5559 33.4415 25.7175 33.6575 26.6679 33.9215C28.2855 34.3967 29.1831 35.2415 29.3607 36.4559C29.4135 36.7727 29.4423 37.0655 29.4423 37.3295C29.4423 38.5103 28.9767 39.4511 28.0407 40.1519C27.4071 40.6271 26.8839 41.0015 26.4711 41.2751C26.0583 41.5487 25.5351 41.8079 24.9015 42.0527C24.2679 42.2975 23.6343 42.4319 23.0007 42.4511C22.7559 42.4511 22.1175 42.4799 21.0855 42.5423C20.0583 42.6047 19.3671 42.6335 19.0119 42.6335C18.5175 42.6335 18.0807 42.5999 17.6919 42.5279C17.6055 42.5279 17.4807 42.5087 17.3223 42.4751C16.5831 42.3503 16.0215 42.2495 15.6327 42.1727C15.2439 42.0959 14.7735 41.9327 14.2215 41.6831C13.6647 41.4383 13.1943 41.1215 12.8103 40.7327C12.1047 40.0463 11.7543 39.4031 11.7543 38.8031C11.7543 37.5695 11.9319 36.6575 12.2823 36.0575C13.2663 34.4015 15.2919 33.4175 18.3543 33.1007C18.7575 33.0479 19.1751 33.0191 19.5927 33.0191V33.0239ZM23.4711 39.1727C23.9127 39.1727 24.2871 38.9951 24.5943 38.6447C24.9015 38.2943 25.0551 37.8623 25.0551 37.3487C25.0551 36.6095 24.6519 36.1535 23.8407 35.9759C22.9767 35.7983 21.2631 35.7119 18.6903 35.7119H18.6663C18.4215 35.7119 18.2055 35.7551 18.0183 35.8415C17.8359 35.9279 17.6823 36.0671 17.5719 36.2495C17.4567 36.4319 17.3799 36.5951 17.3319 36.7391C17.2887 36.8783 17.2311 37.0799 17.1591 37.3439C17.1255 37.4687 17.1063 37.5839 17.1063 37.6895C17.1063 37.9727 17.2071 38.1983 17.4087 38.3759C17.6103 38.5535 17.8599 38.6639 18.1623 38.7215C18.4599 38.7935 18.8679 38.8511 19.3767 38.9039C19.8855 38.9567 20.3367 38.9903 20.7207 39.0095C21.1095 39.0287 21.6039 39.0527 22.2135 39.0863C22.8183 39.1199 23.2119 39.1487 23.3895 39.1679H23.4711V39.1727Z" fill="white"/>
<path d="M60.3209 9.76318C59.5385 9.76318 56.6489 9.88318 55.8713 9.93598C53.0873 10.1376 45.1001 11.3376 44.7833 18.456C44.3993 27.0816 44.6537 40.8528 45.7481 44.5872C46.8425 48.3216 50.3993 51.6144 56.3657 52.1808C61.4345 52.6608 73.3577 53.7264 77.3465 51.0864C82.6649 47.568 83.7833 45.0384 84.4265 36.0288C85.0697 27.0192 87.9641 14.3376 79.2761 11.3136C72.2537 8.87038 61.5113 9.76318 60.3161 9.76318H60.3209Z" fill="#418099"/>
<path d="M60.3209 7.36316C59.5385 7.36316 56.6489 7.48316 55.8713 7.53596C53.0873 7.73756 45.1001 8.93756 44.7833 16.056C44.3993 24.6816 44.6537 38.4528 45.7481 42.1872C46.8425 45.9216 50.3993 49.2144 56.3657 49.7808C61.4345 50.2608 73.3577 51.3264 77.3465 48.6864C82.6649 45.168 83.7833 42.6384 84.4265 33.6288C85.0697 24.6192 87.9641 11.9376 79.2761 8.91356C72.2537 6.47036 61.5113 7.36316 60.3161 7.36316H60.3209Z" fill="#97CFDB"/>
<path d="M67.7039 37.4112C67.6511 37.6944 67.5743 38.1264 67.4783 38.7168C67.3823 39.3072 67.3151 39.672 67.2815 39.8112C67.2095 40.2 66.9839 40.4256 66.5951 40.4976C66.2063 40.5696 65.2991 40.6224 63.8735 40.656C63.5231 40.6752 63.3119 40.464 63.2399 40.0224V38.9136C63.2399 38.7888 63.2399 38.664 63.2543 38.5296C63.2687 38.3952 63.2543 38.2944 63.2399 38.2272C63.2207 38.1552 63.2159 38.0928 63.2159 38.0304C63.2159 37.968 63.1919 37.92 63.1487 37.8864C63.1055 37.8528 63.0671 37.8192 63.0431 37.7952C63.0191 37.7664 62.9567 37.7424 62.8607 37.7136C62.7647 37.6848 62.6831 37.6704 62.6207 37.6608C62.5583 37.6512 62.4479 37.632 62.2895 37.5936C61.9919 37.5408 60.7007 37.4784 58.4207 37.4112C56.1407 37.3392 54.7631 37.3056 54.2879 37.3056C53.9903 37.3056 53.7503 37.1184 53.5727 36.7536C53.2367 35.9952 53.2127 35.0832 53.4911 34.008C53.5247 33.816 53.7647 33.672 54.2063 33.5856C54.2591 33.552 54.7871 33.5376 55.7903 33.5472C56.7935 33.5568 57.3215 33.5616 57.3743 33.5616C57.9359 33.5424 59.5679 33.504 62.2559 33.4416C64.9487 33.3792 66.5231 33.3408 66.9839 33.3216C67.5311 33.288 69.0047 33.2592 71.4047 33.24C73.8047 33.2208 75.1487 33.216 75.4319 33.216C75.8207 33.1968 76.1279 33.456 76.3535 33.9792C76.7231 34.752 76.8047 35.5296 76.5935 36.3024C76.5215 36.5664 76.3103 36.7584 75.9599 36.8832C75.5711 37.0416 74.1983 37.1568 71.8415 37.224C69.4847 37.296 68.2511 37.3296 68.1455 37.3296L67.6943 37.4112H67.7039ZM60.8927 21.7824L69.2351 21.3312V18.1632C69.6047 18.0768 69.9983 18.0096 70.4207 17.9664C70.8431 17.9232 71.2031 17.904 71.5007 17.9136C71.7983 17.9232 72.1967 17.9328 72.6911 17.9424C73.1855 17.952 73.5455 17.9568 73.7711 17.9568C73.8959 17.9568 74.0255 18.0336 74.1695 18.1824C74.3087 18.3312 74.3999 18.4704 74.4335 18.5904C74.9087 20.6832 75.1823 22.1376 75.2543 22.9488C75.2879 23.232 75.2879 23.5152 75.2543 23.808C75.2207 24.096 75.1631 24.4656 75.0815 24.9024C74.9999 25.344 74.9519 25.6224 74.9375 25.7472C74.9039 25.9056 74.7071 27.0144 74.3567 29.0736C73.1231 29.1792 72.4751 29.232 72.4031 29.232C67.3535 29.424 64.3583 29.52 63.4271 29.52C62.0351 29.52 60.0287 29.3712 57.4079 29.0688C56.6879 28.9824 56.1071 28.6944 55.6799 28.2096C55.2479 27.7248 55.0319 27.1392 55.0319 26.4528L55.0031 23.5248C54.9839 23.1024 54.9359 22.488 54.8591 21.6768C54.7775 20.8656 54.7295 20.2704 54.7151 19.8816C54.7151 19.7568 54.7391 19.6224 54.7967 19.4736C54.8495 19.3248 54.9215 19.224 55.0079 19.1712C56.0975 18.6432 57.1487 18.4608 58.1519 18.6192C59.1215 18.7584 59.6399 18.8304 59.7071 18.8304C60.1487 18.8304 60.4511 18.936 60.6191 19.1472C60.7871 19.3584 60.8783 19.6656 60.8975 20.0688V21.7872L60.8927 21.7824ZM61.2335 24.0768C61.2143 24.1632 61.1903 24.3072 61.1519 24.4992C61.1183 24.6912 61.0895 24.8688 61.0703 25.0272C61.0511 25.1856 61.0511 25.344 61.0703 25.5024C61.0895 26.2944 61.1951 26.784 61.3871 26.9664C61.5791 27.1536 62.0639 27.2448 62.8415 27.2448C64.9007 27.2112 66.6143 27.1632 67.9871 27.1152C68.7263 27.096 69.2255 26.9952 69.4799 26.8128C69.7343 26.6256 69.9311 26.2368 70.0751 25.6368C70.2143 25.0224 70.1087 24.504 69.7583 24.0912C69.4079 23.6784 68.8895 23.4864 68.1983 23.5248C67.7759 23.544 65.4527 23.7264 61.2287 24.0768H61.2335Z" fill="#418099"/>
<path d="M67.7039 38.8512C67.6511 39.1344 67.5743 39.5664 67.4783 40.1568C67.3823 40.7472 67.3151 41.112 67.2815 41.2512C67.2095 41.64 66.9839 41.8656 66.5951 41.9376C66.2063 42.0096 65.2991 42.0624 63.8735 42.096C63.5231 42.1152 63.3119 41.904 63.2399 41.4624V40.3536C63.2399 40.2288 63.2399 40.104 63.2543 39.9696C63.2687 39.8352 63.2543 39.7344 63.2399 39.6672C63.2207 39.5952 63.2159 39.5328 63.2159 39.4704C63.2159 39.408 63.1919 39.36 63.1487 39.3264C63.1055 39.2928 63.0671 39.2592 63.0431 39.2352C63.0191 39.2064 62.9567 39.1824 62.8607 39.1536C62.7647 39.1248 62.6831 39.1104 62.6207 39.1008C62.5583 39.0912 62.4479 39.072 62.2895 39.0336C61.9919 38.9808 60.7007 38.9184 58.4207 38.8512C56.1407 38.7792 54.7631 38.7456 54.2879 38.7456C53.9903 38.7456 53.7503 38.5584 53.5727 38.1936C53.2367 37.4352 53.2127 36.5232 53.4911 35.448C53.5247 35.256 53.7647 35.112 54.2063 35.0256C54.2591 34.992 54.7871 34.9776 55.7903 34.9872C56.7935 34.9968 57.3215 35.0016 57.3743 35.0016C57.9359 34.9824 59.5679 34.944 62.2559 34.8816C64.9487 34.8192 66.5231 34.7808 66.9839 34.7616C67.5311 34.728 69.0047 34.6992 71.4047 34.68C73.8047 34.6608 75.1487 34.656 75.4319 34.656C75.8207 34.6368 76.1279 34.896 76.3535 35.4192C76.7231 36.192 76.8047 36.9696 76.5935 37.7424C76.5215 38.0064 76.3103 38.1984 75.9599 38.3232C75.5711 38.4816 74.1983 38.5968 71.8415 38.664C69.4847 38.736 68.2511 38.7696 68.1455 38.7696L67.6943 38.8512H67.7039ZM60.8927 23.2224L69.2351 22.7712V19.6032C69.6047 19.5168 69.9983 19.4496 70.4207 19.4064C70.8431 19.3632 71.2031 19.344 71.5007 19.3536C71.7983 19.3632 72.1967 19.3728 72.6911 19.3824C73.1855 19.392 73.5455 19.3968 73.7711 19.3968C73.8959 19.3968 74.0255 19.4736 74.1695 19.6224C74.3087 19.7712 74.3999 19.9104 74.4335 20.0304C74.9087 22.1232 75.1823 23.5776 75.2543 24.3888C75.2879 24.672 75.2879 24.9552 75.2543 25.248C75.2207 25.536 75.1631 25.9056 75.0815 26.3424C74.9999 26.784 74.9519 27.0624 74.9375 27.1872C74.9039 27.3456 74.7071 28.4544 74.3567 30.5136C73.1231 30.6192 72.4751 30.672 72.4031 30.672C67.3535 30.864 64.3583 30.96 63.4271 30.96C62.0351 30.96 60.0287 30.8112 57.4079 30.5088C56.6879 30.4224 56.1071 30.1344 55.6799 29.6496C55.2479 29.1648 55.0319 28.5792 55.0319 27.8928L55.0031 24.9648C54.9839 24.5424 54.9359 23.928 54.8591 23.1168C54.7775 22.3056 54.7295 21.7104 54.7151 21.3216C54.7151 21.1968 54.7391 21.0624 54.7967 20.9136C54.8495 20.7648 54.9215 20.664 55.0079 20.6112C56.0975 20.0832 57.1487 19.9008 58.1519 20.0592C59.1215 20.1984 59.6399 20.2704 59.7071 20.2704C60.1487 20.2704 60.4511 20.376 60.6191 20.5872C60.7871 20.7984 60.8783 21.1056 60.8975 21.5088V23.2272L60.8927 23.2224ZM61.2335 25.5168C61.2143 25.6032 61.1903 25.7472 61.1519 25.9392C61.1183 26.1312 61.0895 26.3088 61.0703 26.4672C61.0511 26.6256 61.0511 26.784 61.0703 26.9424C61.0895 27.7344 61.1951 28.224 61.3871 28.4064C61.5791 28.5936 62.0639 28.6848 62.8415 28.6848C64.9007 28.6512 66.6143 28.6032 67.9871 28.5552C68.7263 28.536 69.2255 28.4352 69.4799 28.2528C69.7343 28.0656 69.9311 27.6768 70.0751 27.0768C70.2143 26.4624 70.1087 25.944 69.7583 25.5312C69.4079 25.1184 68.8895 24.9264 68.1983 24.9648C67.7759 24.984 65.4527 25.1664 61.2287 25.5168H61.2335Z" fill="white"/>
<path d="M94.8953 21.0864C94.8953 21.0864 89.8553 23.1648 89.3945 30.3216C88.9337 37.4784 89.6249 44.6688 90.8585 47.6928C92.0921 50.7168 94.5545 52.7184 99.5561 52.7184C104.558 52.7184 107.639 52.4496 112.411 52.7184C115.271 52.8816 118.876 53.256 120.801 48.792C122.726 44.328 121.646 29.9376 119.995 24.8544C118.905 21.5088 116.447 18.8592 107.875 19.2336C99.9449 19.5792 98.1017 19.5792 94.9049 21.0816L94.8953 21.0864Z" fill="#C18E1B"/>
<path d="M94.8953 18.6864C94.8953 18.6864 89.8553 20.7648 89.3945 27.9216C88.9337 35.0784 89.6249 42.2688 90.8585 45.2928C92.0921 48.3168 94.5545 50.3183 99.5561 50.3183C104.558 50.3183 107.639 50.0495 112.411 50.3183C115.271 50.4815 118.876 50.8559 120.801 46.392C122.726 41.928 121.646 27.5376 119.995 22.4544C118.905 19.1088 116.447 16.4592 107.875 16.8336C99.9449 17.1792 98.1017 17.1792 94.9049 18.6816L94.8953 18.6864Z" fill="#FED054"/>
<path d="M101.016 24.624C101.136 24.6384 101.323 24.6624 101.582 24.7056C101.836 24.744 102.067 24.7824 102.268 24.816C102.47 24.8496 102.657 24.8928 102.835 24.9456C102.888 24.9744 103.089 25.0416 103.43 25.1472C103.771 25.2528 104.006 25.3296 104.126 25.368C104.246 25.4064 104.438 25.4736 104.702 25.5696C104.966 25.6656 105.187 25.7568 105.379 25.8432C105.566 25.9296 105.753 26.0208 105.945 26.1168C106.646 26.5056 107.097 27.0288 107.304 27.6912C107.51 28.3488 107.486 29.0496 107.232 29.7888C106.896 30.8928 106.492 31.9104 106.022 32.8512C105.902 33.0816 105.729 33.2928 105.508 33.4944C105.288 33.696 105.062 33.8352 104.832 33.9168C103.204 34.4832 101.976 34.7952 101.14 34.8624C99.8491 34.968 98.8075 34.656 98.0155 33.9168C97.5451 33.4752 97.2139 32.76 97.0267 31.7808C96.5707 29.3616 97.1563 27.3072 98.7787 25.6128C99.3835 24.9792 100.128 24.6528 101.016 24.624ZM109.824 38.976C107.769 39.2448 106.665 39.3936 106.516 39.4176C105.71 39.5376 104.203 39.6336 101.99 39.7008C99.7771 39.768 98.2555 39.7392 97.4251 39.6192C97.3435 39.6048 97.2619 39.5568 97.1707 39.48C97.0843 39.3984 97.0411 39.3264 97.0411 39.2592C96.9883 38.4816 96.9883 37.848 97.0411 37.3632C97.0699 37.0272 97.2091 36.6288 97.4635 36.1728C98.3371 35.9328 98.9419 35.7984 99.2779 35.7696C99.5179 35.7312 100.67 35.7456 102.734 35.8176C104.798 35.8896 105.931 35.928 106.132 35.928C106.387 35.9136 106.771 35.904 107.28 35.8992C107.788 35.8944 108.172 35.8848 108.427 35.8704L109.876 35.7312C109.972 33.4464 110.025 32.184 110.04 31.9392L110.361 24.4176C110.4 24.3648 110.467 24.3024 110.563 24.2352C110.659 24.168 110.865 24.072 111.187 23.952C111.508 23.832 111.844 23.7552 112.195 23.7312C112.368 23.7168 112.593 23.7312 112.862 23.76C113.131 23.7936 113.361 23.8368 113.548 23.8896L113.832 23.952C113.884 24.0048 113.956 24.072 114.043 24.144C114.129 24.216 114.23 24.3648 114.345 24.5856C114.46 24.8064 114.489 25.0128 114.436 25.2C114.249 25.7664 114.105 27.648 114.014 30.8544C113.918 34.0608 113.86 35.7648 113.832 35.9664C113.817 36.1296 113.812 36.4464 113.822 36.9216C113.827 37.3968 113.803 37.7136 113.75 37.8576C113.712 38.0208 113.697 38.4912 113.721 39.2688C113.745 40.0464 113.721 40.5072 113.668 40.6416C113.548 41.016 113.38 41.2752 113.164 41.4096C112.948 41.544 112.632 41.6112 112.219 41.6112C111.532 41.5968 111.024 41.5632 110.688 41.5104C110.217 41.4144 110.011 41.1456 110.064 40.704C110.078 40.5984 110.04 40.3248 109.953 39.888C109.867 39.4512 109.824 39.144 109.824 38.9712V38.976ZM103.656 29.784C103.656 29.1936 103.54 28.7712 103.315 28.512C103.084 28.2576 102.715 28.128 102.206 28.128C101.616 28.128 101.092 28.3584 100.632 28.824C100.176 29.2896 99.9403 29.8224 99.9259 30.4272C99.9259 30.7632 100.132 31.1184 100.55 31.488C100.968 31.8576 101.361 32.0208 101.74 31.9824C102.24 31.9296 102.681 31.6992 103.07 31.296C103.459 30.8928 103.656 30.3888 103.656 29.784Z" fill="#C18E1B"/>
<path d="M101.016 26.0641C101.136 26.0785 101.323 26.1025 101.582 26.1457C101.836 26.1841 102.067 26.2225 102.268 26.2561C102.47 26.2897 102.657 26.3329 102.835 26.3857C102.888 26.4145 103.089 26.4817 103.43 26.5873C103.771 26.6929 104.006 26.7697 104.126 26.8081C104.246 26.8465 104.438 26.9137 104.702 27.0097C104.966 27.1057 105.187 27.1969 105.379 27.2833C105.566 27.3697 105.753 27.4609 105.945 27.5569C106.646 27.9457 107.097 28.4689 107.304 29.1313C107.51 29.7889 107.486 30.4897 107.232 31.2289C106.896 32.3329 106.492 33.3505 106.022 34.2913C105.902 34.5217 105.729 34.7329 105.508 34.9345C105.288 35.1361 105.062 35.2753 104.832 35.3569C103.204 35.9233 101.976 36.2353 101.14 36.3025C99.8491 36.4081 98.8075 36.0961 98.0155 35.3569C97.5451 34.9153 97.2139 34.2001 97.0267 33.2209C96.5707 30.8017 97.1563 28.7473 98.7787 27.0529C99.3835 26.4193 100.128 26.0929 101.016 26.0641ZM109.824 40.4161C107.769 40.6849 106.665 40.8337 106.516 40.8577C105.71 40.9777 104.203 41.0737 101.99 41.1409C99.7771 41.2081 98.2555 41.1793 97.4251 41.0593C97.3435 41.0449 97.2619 40.9969 97.1707 40.9201C97.0843 40.8385 97.0411 40.7665 97.0411 40.6993C96.9883 39.9217 96.9883 39.2881 97.0411 38.8033C97.0699 38.4673 97.2091 38.0689 97.4635 37.6129C98.3371 37.3729 98.9419 37.2385 99.2779 37.2097C99.5179 37.1713 100.67 37.1857 102.734 37.2577C104.798 37.3297 105.931 37.3681 106.132 37.3681C106.387 37.3537 106.771 37.3441 107.28 37.3393C107.788 37.3345 108.172 37.3249 108.427 37.3105L109.876 37.1713C109.972 34.8865 110.025 33.6241 110.04 33.3793L110.361 25.8577C110.4 25.8049 110.467 25.7425 110.563 25.6753C110.659 25.6081 110.865 25.5121 111.187 25.3921C111.508 25.2721 111.844 25.1953 112.195 25.1713C112.368 25.1569 112.593 25.1713 112.862 25.2001C113.131 25.2337 113.361 25.2769 113.548 25.3297L113.832 25.3921C113.884 25.4449 113.956 25.5121 114.043 25.5841C114.129 25.6561 114.23 25.8049 114.345 26.0257C114.46 26.2465 114.489 26.4529 114.436 26.6401C114.249 27.2065 114.105 29.0881 114.014 32.2945C113.918 35.5009 113.86 37.2049 113.832 37.4065C113.817 37.5697 113.812 37.8865 113.822 38.3617C113.827 38.8369 113.803 39.1537 113.75 39.2977C113.712 39.4609 113.697 39.9313 113.721 40.7089C113.745 41.4865 113.721 41.9473 113.668 42.0817C113.548 42.4561 113.38 42.7153 113.164 42.8497C112.948 42.9841 112.632 43.0513 112.219 43.0513C111.532 43.0369 111.024 43.0033 110.688 42.9505C110.217 42.8545 110.011 42.5857 110.064 42.1441C110.078 42.0385 110.04 41.7649 109.953 41.3281C109.867 40.8913 109.824 40.5841 109.824 40.4113V40.4161ZM103.656 31.2241C103.656 30.6337 103.54 30.2113 103.315 29.9521C103.084 29.6977 102.715 29.5681 102.206 29.5681C101.616 29.5681 101.092 29.7985 100.632 30.2641C100.176 30.7297 99.9403 31.2625 99.9259 31.8673C99.9259 32.2033 100.132 32.5585 100.55 32.9281C100.968 33.2977 101.361 33.4609 101.74 33.4225C102.24 33.3697 102.681 33.1393 103.07 32.7361C103.459 32.3329 103.656 31.8289 103.656 31.2241Z" fill="white"/>
</svg>
