<svg width="198" height="222" viewBox="0 0 198 222" fill="none" xmlns="http://www.w3.org/2000/svg">
<path d="M99.1767 12.5375C105.07 12.6767 113.143 12.4215 121.774 12.5375C140.125 12.8391 183.602 12.3983 192.232 46.4327C202.301 86.1743 194.158 170.715 190.306 184.774C186.478 198.834 179.774 221.198 144.95 221.198H62.1959C56.4423 221.198 12.3623 218.971 4.6831 176.794C-2.9729 134.639 0.855101 76.4999 1.7367 63.8791C2.6183 51.2815 5.0079 16.4351 47.8119 13.8599C74.3991 12.2823 88.5279 12.2823 99.1767 12.5375Z" fill="#BC3C6A"/>
<path d="M99.1767 0.938393C105.07 1.07759 113.143 0.822393 121.774 0.938393C140.125 1.23999 183.602 0.799191 192.232 34.8336C202.301 74.5752 194.158 159.116 190.306 173.175C186.478 187.234 179.774 209.599 144.95 209.599H62.1959C56.4423 209.599 12.3623 207.372 4.6831 165.194C-2.9729 123.04 0.855101 64.9008 1.7367 52.28C2.6183 39.6824 5.0079 4.83599 47.8119 2.26079C74.3991 0.683192 88.5279 0.683193 99.1767 0.938393Z" fill="#F885A7"/>
<path d="M91.1248 99.2612C90.9624 97.2196 90.8928 95.4564 90.9392 93.9716C90.9856 92.4868 91.4032 91.234 92.2152 90.2132C93.0272 89.1924 94.3264 88.4732 96.1128 88.0324C100.034 87.174 102.284 86.7564 102.887 86.7564C104.929 86.594 106.53 86.594 107.666 86.7564C108.826 86.9188 109.615 87.406 110.079 88.218C110.543 89.03 110.961 90.5844 111.286 92.8812C111.378 93.0436 111.402 93.7396 111.402 94.9228C111.402 96.106 111.402 97.2428 111.471 98.31C111.518 99.3772 111.61 99.9108 111.796 99.9108C114 99.9108 119.058 100.05 126.969 100.352C134.88 100.653 139.891 100.792 142.026 100.792L152.86 99.7716C153.115 99.8644 153.486 100.05 153.95 100.352C154.414 100.653 154.994 101.256 155.667 102.138C156.34 103.043 156.595 103.994 156.433 105.015C156.34 105.525 155.783 108.889 154.786 115.084C153.602 115.176 152.953 115.223 152.86 115.223C152.442 115.223 137.502 115.06 108.084 114.712C106.46 114.712 102.098 114.828 94.9296 115.037C87.784 115.246 83.6544 115.362 82.564 115.362C80.5224 115.455 75.3256 115.408 66.9968 115.223C58.668 115.06 53.5176 114.921 51.5456 114.828C51.0352 114.828 49.8056 114.921 47.8568 115.084C45.908 115.246 44.6552 115.339 44.1448 115.339C43.3792 115.339 42.7528 115.269 42.2424 115.153C41.732 115.014 41.3608 114.759 41.152 114.318C40.9432 113.9 40.804 113.529 40.7576 113.228C40.7112 112.926 40.6648 112.323 40.6416 111.372C40.5952 110.444 40.572 109.701 40.572 109.191C40.4096 107.66 40.4096 105.456 40.572 102.556C40.6648 101.024 41.4304 100.259 42.8688 100.259C45.0032 100.166 51.244 100.212 61.6144 100.398C71.9848 100.56 78.4112 100.607 80.8936 100.514C81.9144 100.514 85.3248 100.096 91.1016 99.238L91.1248 99.2612ZM56.1624 52.3044C56.8352 52.2116 57.7632 52.026 58.9 51.7244C60.06 51.4228 61.0576 51.214 61.8928 51.0748C62.7512 50.9588 63.5864 50.8428 64.4448 50.75C79.3392 50.2396 90.8696 49.9844 99.036 49.9844C108.316 49.9844 118.222 50.286 128.778 50.866C131.748 50.866 133.581 50.9356 134.254 51.0516C134.926 51.1908 135.878 51.3764 137.061 51.6316C138.244 51.8868 139.172 52.2812 139.798 52.838C140.448 53.3948 140.889 54.0908 141.144 54.9492C141.237 55.2972 141.353 55.7148 141.538 56.2252C141.886 57.594 142.095 58.638 142.165 59.4268C142.258 60.3548 142.327 61.306 142.42 62.234C142.768 62.3964 142.861 65.9692 142.745 72.9524C142.606 79.9356 142.559 83.5084 142.559 83.6708C142.652 86.2228 142.142 88.102 141.028 89.2852C139.914 90.4684 138.128 91.118 135.669 91.2108C134.903 91.2108 133.79 91.1412 132.351 91.0252C130.913 90.886 129.846 90.8396 129.15 90.8396C125.484 90.9324 123.582 86.1532 123.396 76.5484C123.396 73.486 123.002 71.6068 122.19 70.934C121.378 70.2612 119.522 69.8204 116.645 69.658C116.227 69.658 115.879 69.6116 115.624 69.5188C108.223 69.1012 103.676 68.8924 101.959 68.8924C89.292 68.6372 77.2048 68.5908 65.7208 68.7532H62.148C61.3824 68.7532 60.6168 68.6372 59.8512 68.4284C59.0856 68.2196 58.5752 68.0804 58.32 68.0572C58.0648 68.0108 57.8096 67.6628 57.5544 67.0364C57.2992 66.41 57.16 65.9228 57.16 65.6444C57.16 65.366 57.1136 64.6004 57.044 63.4172C56.9512 62.234 56.8816 61.2364 56.7888 60.4708C56.3712 55.1116 56.1624 52.3972 56.1624 52.3044ZM94.6976 118.656C99.6392 118.656 105.416 119.051 112.051 119.863C118.686 120.675 124.301 121.719 128.894 122.995C136.713 125.292 141.051 129.375 141.91 135.244C142.165 136.776 142.304 138.191 142.304 139.467C142.304 145.174 140.054 149.721 135.53 153.108C132.467 155.405 129.938 157.215 127.943 158.537C125.948 159.86 123.419 161.112 120.357 162.296C117.294 163.479 114.232 164.128 111.17 164.221C109.986 164.221 106.901 164.36 101.913 164.662C96.948 164.964 93.6072 165.103 91.8904 165.103C89.5008 165.103 87.3896 164.94 85.5104 164.592C85.0928 164.592 84.4896 164.5 83.724 164.337C80.1512 163.734 77.4368 163.247 75.5576 162.876C73.6784 162.504 71.4048 161.716 68.7368 160.509C66.0456 159.326 63.772 157.795 61.916 155.916C58.5056 152.598 56.812 149.489 56.812 146.589C56.812 140.627 57.6704 136.219 59.364 133.319C64.12 125.315 73.9104 120.559 88.712 119.028C90.6608 118.772 92.6792 118.633 94.6976 118.633V118.656ZM113.443 148.376C115.578 148.376 117.387 147.517 118.872 145.824C120.357 144.13 121.099 142.042 121.099 139.56C121.099 135.987 119.15 133.783 115.23 132.924C111.054 132.066 102.771 131.648 90.336 131.648H90.22C89.0368 131.648 87.9928 131.857 87.088 132.275C86.2064 132.692 85.464 133.365 84.9304 134.247C84.3736 135.128 84.0024 135.917 83.7704 136.613C83.5616 137.286 83.2832 138.26 82.9352 139.536C82.7728 140.14 82.68 140.696 82.68 141.207C82.68 142.576 83.1672 143.666 84.1416 144.524C85.116 145.383 86.3224 145.916 87.784 146.195C89.2224 146.543 91.1944 146.821 93.6536 147.076C96.1128 147.332 98.2936 147.494 100.15 147.587C102.029 147.68 104.418 147.796 107.365 147.958C110.288 148.12 112.19 148.26 113.049 148.352H113.443V148.376Z" fill="#BC3C6A"/>
<path d="M91.1248 106.221C90.9624 104.18 90.8928 102.416 90.9392 100.932C90.9856 99.4467 91.4032 98.1939 92.2152 97.1731C93.0272 96.1523 94.3264 95.4331 96.1128 94.9923C100.034 94.1339 102.284 93.7163 102.887 93.7163C104.929 93.5539 106.53 93.5539 107.666 93.7163C108.826 93.8787 109.615 94.3659 110.079 95.1779C110.543 95.9899 110.961 97.5443 111.286 99.8411C111.378 100.004 111.402 100.7 111.402 101.883C111.402 103.066 111.402 104.203 111.471 105.27C111.518 106.337 111.61 106.871 111.796 106.871C114 106.871 119.058 107.01 126.969 107.312C134.88 107.613 139.891 107.752 142.026 107.752L152.86 106.732C153.115 106.824 153.486 107.01 153.95 107.312C154.414 107.613 154.994 108.216 155.667 109.098C156.34 110.003 156.595 110.954 156.433 111.975C156.34 112.485 155.783 115.849 154.786 122.044C153.602 122.136 152.953 122.183 152.86 122.183C152.442 122.183 137.502 122.02 108.084 121.672C106.46 121.672 102.098 121.788 94.9296 121.997C87.784 122.206 83.6544 122.322 82.564 122.322C80.5224 122.415 75.3256 122.368 66.9968 122.183C58.668 122.02 53.5176 121.881 51.5456 121.788C51.0352 121.788 49.8056 121.881 47.8568 122.044C45.908 122.206 44.6552 122.299 44.1448 122.299C43.3792 122.299 42.7528 122.229 42.2424 122.113C41.732 121.974 41.3608 121.719 41.152 121.278C40.9432 120.86 40.804 120.489 40.7576 120.188C40.7112 119.886 40.6648 119.283 40.6416 118.332C40.5952 117.404 40.572 116.661 40.572 116.151C40.4096 114.62 40.4096 112.416 40.572 109.516C40.6648 107.984 41.4304 107.219 42.8688 107.219C45.0032 107.126 51.244 107.172 61.6144 107.358C71.9848 107.52 78.4112 107.567 80.8936 107.474C81.9144 107.474 85.3248 107.056 91.1016 106.198L91.1248 106.221ZM56.1624 59.2643C56.8352 59.1715 57.7632 58.9859 58.9 58.6843C60.06 58.3827 61.0576 58.1739 61.8928 58.0347C62.7512 57.9187 63.5864 57.8027 64.4448 57.7099C79.3392 57.1995 90.8696 56.9443 99.036 56.9443C108.316 56.9443 118.222 57.2459 128.778 57.8259C131.748 57.8259 133.581 57.8955 134.254 58.0115C134.926 58.1507 135.878 58.3363 137.061 58.5915C138.244 58.8467 139.172 59.2411 139.798 59.7979C140.448 60.3547 140.889 61.0507 141.144 61.9091C141.237 62.2571 141.353 62.6747 141.538 63.1851C141.886 64.5539 142.095 65.5979 142.165 66.3867C142.258 67.3147 142.327 68.2659 142.42 69.1939C142.768 69.3563 142.861 72.9291 142.745 79.9123C142.606 86.8955 142.559 90.4683 142.559 90.6307C142.652 93.1827 142.142 95.0619 141.028 96.2451C139.914 97.4283 138.128 98.0779 135.669 98.1707C134.903 98.1707 133.79 98.1011 132.351 97.9851C130.913 97.8459 129.846 97.7995 129.15 97.7995C125.484 97.8923 123.582 93.1131 123.396 83.5083C123.396 80.4459 123.002 78.5667 122.19 77.8939C121.378 77.2211 119.522 76.7803 116.645 76.6179C116.227 76.6179 115.879 76.5715 115.624 76.4787C108.223 76.0611 103.676 75.8523 101.959 75.8523C89.292 75.5971 77.2048 75.5507 65.7208 75.7131H62.148C61.3824 75.7131 60.6168 75.5971 59.8512 75.3883C59.0856 75.1795 58.5752 75.0403 58.32 75.0171C58.0648 74.9707 57.8096 74.6227 57.5544 73.9963C57.2992 73.3699 57.16 72.8827 57.16 72.6043C57.16 72.3259 57.1136 71.5603 57.044 70.3771C56.9512 69.1939 56.8816 68.1963 56.7888 67.4307C56.3712 62.0715 56.1624 59.3571 56.1624 59.2643ZM94.6976 125.616C99.6392 125.616 105.416 126.011 112.051 126.823C118.686 127.635 124.301 128.679 128.894 129.955C136.713 132.252 141.051 136.335 141.91 142.204C142.165 143.736 142.304 145.151 142.304 146.427C142.304 152.134 140.054 156.681 135.53 160.068C132.467 162.365 129.938 164.175 127.943 165.497C125.948 166.82 123.419 168.072 120.357 169.256C117.294 170.439 114.232 171.088 111.17 171.181C109.986 171.181 106.901 171.32 101.913 171.622C96.948 171.924 93.6072 172.063 91.8904 172.063C89.5008 172.063 87.3896 171.9 85.5104 171.552C85.0928 171.552 84.4896 171.46 83.724 171.297C80.1512 170.694 77.4368 170.207 75.5576 169.836C73.6784 169.464 71.4048 168.676 68.7368 167.469C66.0456 166.286 63.772 164.755 61.916 162.876C58.5056 159.558 56.812 156.449 56.812 153.549C56.812 147.587 57.6704 143.179 59.364 140.279C64.12 132.275 73.9104 127.519 88.712 125.988C90.6608 125.732 92.6792 125.593 94.6976 125.593V125.616ZM113.443 155.336C115.578 155.336 117.387 154.477 118.872 152.784C120.357 151.09 121.099 149.002 121.099 146.52C121.099 142.947 119.15 140.743 115.23 139.884C111.054 139.026 102.771 138.608 90.336 138.608H90.22C89.0368 138.608 87.9928 138.817 87.088 139.235C86.2064 139.652 85.464 140.325 84.9304 141.207C84.3736 142.088 84.0024 142.877 83.7704 143.573C83.5616 144.246 83.2832 145.22 82.9352 146.496C82.7728 147.1 82.68 147.656 82.68 148.167C82.68 149.536 83.1672 150.626 84.1416 151.484C85.116 152.343 86.3224 152.876 87.784 153.155C89.2224 153.503 91.1944 153.781 93.6536 154.036C96.1128 154.292 98.2936 154.454 100.15 154.547C102.029 154.64 104.418 154.756 107.365 154.918C110.288 155.08 112.19 155.22 113.049 155.312H113.443V155.336Z" fill="white"/>
</svg>
