<svg width="198" height="222" viewBox="0 0 198 222" fill="none" xmlns="http://www.w3.org/2000/svg">
<path d="M76.5505 13.1888C72.7689 13.1888 58.8026 13.7688 55.0442 14.024C41.5882 14.9984 2.98336 20.7984 1.45216 55.204C-0.403836 96.8944 0.825751 163.455 6.11535 181.505C11.4049 199.554 28.5962 215.47 57.4337 218.207C81.9329 220.527 139.562 225.678 158.841 212.918C184.547 195.912 189.952 183.686 193.061 140.139C196.17 96.5928 210.159 35.2984 168.167 20.6824C134.226 8.8736 82.3042 13.1888 76.5274 13.1888H76.5505Z" fill="#418099"/>
<path d="M76.5505 1.58919C72.7689 1.58919 58.8026 2.16919 55.0442 2.42439C41.5882 3.39879 2.98336 9.19879 1.45216 43.6044C-0.403836 85.2948 0.825751 151.856 6.11535 169.905C11.4049 187.955 28.5962 203.87 57.4337 206.608C81.9329 208.928 139.562 214.078 158.841 201.318C184.547 184.312 189.952 172.086 193.061 128.54C196.17 84.9932 210.159 23.6988 168.167 9.08279C134.226 -2.72601 82.3042 1.58919 76.5274 1.58919H76.5505Z" fill="#97CFDB"/>
<path d="M112.235 146.821C111.98 148.19 111.609 150.278 111.145 153.131C110.681 155.985 110.356 157.748 110.193 158.421C109.845 160.3 108.755 161.391 106.876 161.739C104.997 162.087 100.612 162.342 93.7215 162.504C92.0279 162.597 91.0071 161.576 90.6591 159.442V154.082C90.6591 153.479 90.6591 152.876 90.7287 152.227C90.7983 151.577 90.7287 151.09 90.6591 150.765C90.5663 150.417 90.5431 150.115 90.5431 149.814C90.5431 149.512 90.4271 149.28 90.2183 149.118C90.0095 148.955 89.8239 148.793 89.7079 148.677C89.5919 148.538 89.2903 148.422 88.8263 148.282C88.3623 148.143 87.9679 148.074 87.6663 148.027C87.3647 147.981 86.8311 147.888 86.0655 147.702C84.6271 147.447 78.3863 147.146 67.3663 146.821C56.3463 146.473 49.6879 146.311 47.3911 146.311C45.9527 146.311 44.7927 145.406 43.9343 143.642C42.3103 139.977 42.1943 135.569 43.5399 130.372C43.7023 129.444 44.8623 128.748 46.9967 128.331C47.2519 128.168 49.8039 128.098 54.6527 128.145C59.5015 128.191 62.0535 128.215 62.3087 128.215C65.0231 128.122 72.9111 127.936 85.9031 127.635C98.9183 127.333 106.528 127.147 108.755 127.055C111.4 126.892 118.522 126.753 130.122 126.66C141.722 126.567 148.218 126.544 149.587 126.544C151.466 126.451 152.951 127.704 154.041 130.233C155.828 133.968 156.222 137.727 155.201 141.462C154.853 142.738 153.833 143.666 152.139 144.269C150.26 145.035 143.625 145.591 132.233 145.916C120.842 146.264 114.88 146.427 114.369 146.427L112.189 146.821H112.235ZM79.3143 71.2817L119.636 69.1009V53.7889C121.422 53.3713 123.325 53.0465 125.366 52.8377C127.408 52.6289 129.148 52.5361 130.586 52.5825C132.025 52.6289 133.95 52.6753 136.34 52.7217C138.729 52.7681 140.469 52.7913 141.56 52.7913C142.163 52.7913 142.789 53.1625 143.485 53.8817C144.158 54.6009 144.599 55.2737 144.761 55.8537C147.058 65.9689 148.381 72.9985 148.729 76.9193C148.891 78.2881 148.891 79.6569 148.729 81.0721C148.566 82.4641 148.288 84.2505 147.893 86.3617C147.499 88.4961 147.267 89.8417 147.197 90.4449C147.035 91.2105 146.084 96.5697 144.39 106.523C138.428 107.033 135.296 107.288 134.948 107.288C110.541 108.216 96.0647 108.68 91.5639 108.68C84.8359 108.68 75.1383 107.961 62.4711 106.499C58.9911 106.082 56.1839 104.69 54.1191 102.347C52.0311 100.003 50.9871 97.1729 50.9871 93.8553L50.8479 79.7033C50.7551 77.6617 50.5231 74.6921 50.1519 70.7713C49.7575 66.8505 49.5255 63.9737 49.4559 62.0945C49.4559 61.4913 49.5719 60.8417 49.8503 60.1225C50.1055 59.4033 50.4535 58.9161 50.8711 58.6609C56.1375 56.1089 61.2183 55.2273 66.0671 55.9929C70.7535 56.6657 73.2591 57.0137 73.5839 57.0137C75.7183 57.0137 77.1799 57.5241 77.9919 58.5449C78.8039 59.5657 79.2447 61.0505 79.3375 62.9993V71.3049L79.3143 71.2817ZM80.9615 82.3713C80.8687 82.7889 80.7527 83.4849 80.5671 84.4129C80.4047 85.3409 80.2655 86.1993 80.1727 86.9649C80.0799 87.7305 80.0799 88.4961 80.1727 89.2617C80.2655 93.0897 80.7759 95.4561 81.7039 96.3377C82.6319 97.2425 84.9751 97.6833 88.7335 97.6833C98.6863 97.5209 106.969 97.2889 113.604 97.0569C117.177 96.9641 119.589 96.4769 120.819 95.5953C122.049 94.6905 123 92.8113 123.696 89.9113C124.369 86.9417 123.858 84.4361 122.165 82.4409C120.471 80.4457 117.965 79.5177 114.625 79.7033C112.583 79.7961 101.354 80.6777 80.9383 82.3713H80.9615Z" fill="#418099"/>
<path d="M112.235 153.781C111.98 155.15 111.609 157.238 111.145 160.091C110.681 162.945 110.356 164.708 110.193 165.381C109.845 167.26 108.755 168.35 106.876 168.698C104.997 169.046 100.612 169.302 93.7215 169.464C92.0279 169.557 91.0071 168.536 90.6591 166.402V161.042C90.6591 160.439 90.6591 159.836 90.7287 159.186C90.7983 158.537 90.7287 158.05 90.6591 157.725C90.5663 157.377 90.5431 157.075 90.5431 156.774C90.5431 156.472 90.4271 156.24 90.2183 156.078C90.0095 155.915 89.8239 155.753 89.7079 155.637C89.5919 155.498 89.2903 155.382 88.8263 155.242C88.3623 155.103 87.9679 155.034 87.6663 154.987C87.3647 154.941 86.8311 154.848 86.0655 154.662C84.6271 154.407 78.3863 154.106 67.3663 153.781C56.3463 153.433 49.6879 153.27 47.3911 153.27C45.9527 153.27 44.7927 152.366 43.9343 150.602C42.3103 146.937 42.1943 142.529 43.5399 137.332C43.7023 136.404 44.8623 135.708 46.9967 135.29C47.2519 135.128 49.8039 135.058 54.6527 135.105C59.5015 135.151 62.0535 135.174 62.3087 135.174C65.0231 135.082 72.9111 134.896 85.9031 134.594C98.9183 134.293 106.528 134.107 108.755 134.014C111.4 133.852 118.522 133.713 130.122 133.62C141.722 133.527 148.218 133.504 149.587 133.504C151.466 133.411 152.951 134.664 154.041 137.193C155.828 140.928 156.222 144.686 155.201 148.422C154.853 149.698 153.833 150.626 152.139 151.229C150.26 151.994 143.625 152.551 132.233 152.876C120.842 153.224 114.88 153.386 114.369 153.386L112.189 153.781H112.235ZM79.3143 78.2417L119.636 76.0609V60.7489C121.422 60.3313 123.325 60.0065 125.366 59.7977C127.408 59.5889 129.148 59.4961 130.586 59.5425C132.025 59.5889 133.95 59.6353 136.34 59.6817C138.729 59.7281 140.469 59.7513 141.56 59.7513C142.163 59.7513 142.789 60.1225 143.485 60.8417C144.158 61.5609 144.599 62.2337 144.761 62.8137C147.058 72.9289 148.381 79.9585 148.729 83.8793C148.891 85.2481 148.891 86.6169 148.729 88.0321C148.566 89.4241 148.288 91.2105 147.893 93.3217C147.499 95.4561 147.267 96.8017 147.197 97.4049C147.035 98.1705 146.084 103.53 144.39 113.482C138.428 113.993 135.296 114.248 134.948 114.248C110.541 115.176 96.0647 115.64 91.5639 115.64C84.8359 115.64 75.1383 114.921 62.4711 113.459C58.9911 113.042 56.1839 111.65 54.1191 109.306C52.0311 106.963 50.9871 104.133 50.9871 100.815L50.8479 86.6633C50.7551 84.6217 50.5231 81.6521 50.1519 77.7313C49.7575 73.8105 49.5255 70.9337 49.4559 69.0545C49.4559 68.4513 49.5719 67.8017 49.8503 67.0825C50.1055 66.3633 50.4535 65.8761 50.8711 65.6209C56.1375 63.0689 61.2183 62.1873 66.0671 62.9529C70.7535 63.6257 73.2591 63.9737 73.5839 63.9737C75.7183 63.9737 77.1799 64.4841 77.9919 65.5049C78.8039 66.5257 79.2447 68.0105 79.3375 69.9593V78.2649L79.3143 78.2417ZM80.9615 89.3313C80.8687 89.7489 80.7527 90.4449 80.5671 91.3729C80.4047 92.3009 80.2655 93.1593 80.1727 93.9249C80.0799 94.6905 80.0799 95.4561 80.1727 96.2217C80.2655 100.05 80.7759 102.416 81.7039 103.298C82.6319 104.202 84.9751 104.643 88.7335 104.643C98.6863 104.481 106.969 104.249 113.604 104.017C117.177 103.924 119.589 103.437 120.819 102.555C122.049 101.65 123 99.7713 123.696 96.8713C124.369 93.9017 123.858 91.3961 122.165 89.4009C120.471 87.4057 117.965 86.4777 114.625 86.6633C112.583 86.7561 101.354 87.6377 80.9383 89.3313H80.9615Z" fill="white"/>
</svg>
