<svg width="271" height="290" viewBox="0 0 271 290" fill="none" xmlns="http://www.w3.org/2000/svg">
<path d="M237.266 132.402C241.952 123.632 244.62 113.61 244.62 102.961C244.62 68.2772 216.502 40.1588 181.818 40.1588C175.925 40.1588 170.241 40.9708 164.835 42.502C153.467 23.9652 132.982 11.5996 109.619 11.5996C73.8219 11.5996 44.8218 40.646 44.8218 76.4436C44.8218 84.61 46.3298 92.4284 49.1138 99.6204C21.2274 105.629 0.324219 130.476 0.324219 160.196C0.324219 179.15 8.8386 196.156 22.2714 207.5C21.6682 210.864 21.3434 214.344 21.3434 217.894C21.3434 251.024 48.209 277.866 81.3154 277.866C90.7578 277.866 99.6666 275.685 107.601 271.811C116.487 282.9 130.175 290 145.487 290C164.418 290 180.843 279.188 188.871 263.343C192.281 263.876 195.807 264.132 199.403 264.132C238.797 264.132 270.743 232.208 270.743 192.792C270.743 167.318 257.38 144.93 237.243 132.356L237.266 132.402Z" fill="#578246"/>
<path d="M237.266 120.802C241.952 112.033 244.62 102.01 244.62 91.3616C244.62 56.6776 216.502 28.5592 181.818 28.5592C175.925 28.5592 170.241 29.3712 164.835 30.9024C153.467 12.3656 132.982 0 109.619 0C73.8219 0 44.8218 29.0464 44.8218 64.844C44.8218 73.0104 46.3298 80.8288 49.1138 88.0208C21.2274 94.0296 0.324219 118.877 0.324219 148.596C0.324219 167.55 8.8386 184.556 22.2714 195.901C21.6682 199.265 21.3434 202.745 21.3434 206.294C21.3434 239.424 48.209 266.266 81.3154 266.266C90.7578 266.266 99.6666 264.086 107.601 260.211C116.487 271.301 130.175 278.4 145.487 278.4C164.418 278.4 180.843 267.589 188.871 251.743C192.281 252.277 195.807 252.532 199.403 252.532C238.797 252.532 270.743 220.609 270.743 181.192C270.743 155.718 257.38 133.33 237.243 120.756L237.266 120.802Z" fill="#99C08E"/>
<path d="M96.4913 177.919C95.8185 177.919 94.8673 177.966 93.6609 178.082C92.4313 178.198 91.5496 178.244 90.9928 178.244C88.8816 178.244 87.3505 177.687 86.3993 176.574C85.4481 175.46 84.984 173.674 84.984 171.238C84.984 170.565 85.3784 167.062 86.144 160.705C93.9392 158.153 101.572 156.854 109.019 156.854C109.576 156.854 110.411 156.877 111.525 156.947C112.638 156.993 113.52 157.039 114.193 157.039L125.886 156.367C125.445 155.369 125.19 154 125.143 152.283C125.097 150.567 124.888 149.221 124.563 148.27C124.238 147.319 123.496 146.785 122.383 146.692C120.712 146.367 113.868 146.043 101.827 145.764C89.8097 145.486 82.78 145.463 80.7848 145.671C78.2328 146.112 76.0289 146.251 74.1961 146.089C72.3633 145.927 70.9944 144.72 70.1128 142.493C68.4424 138.827 67.9321 134.698 68.6049 130.127C68.8369 129.014 69.7649 127.9 71.4353 126.787C73.1057 125.673 77.0033 124.791 83.1281 124.119C89.2529 123.446 93.5913 123.33 96.1665 123.794H117.139C121.083 123.794 123.844 123.747 125.398 123.631C145.884 123.399 157.693 123.307 160.802 123.307C163.91 123.307 170.708 123.585 181.171 124.142C191.634 124.699 197.156 124.977 197.713 124.977C198.27 124.977 199.267 125.139 200.729 125.487C203.072 126.044 204.65 126.856 205.485 127.9C206.32 128.967 206.575 130.661 206.227 133.004C206.111 133.886 205.995 134.675 205.902 135.347C205.786 136.02 205.67 136.623 205.578 137.18C205.462 137.737 205.253 138.201 204.905 138.595C204.58 138.99 204.348 139.338 204.232 139.686C204.116 140.034 203.791 140.335 203.234 140.614C202.678 140.892 202.26 141.124 201.982 141.287C201.703 141.449 201.146 141.658 200.311 141.867C199.476 142.099 198.873 142.261 198.478 142.377C198.084 142.493 197.272 142.702 196.066 143.05C194.836 143.375 193.885 143.607 193.235 143.723C192.006 144.047 184.883 144.419 171.845 144.813C158.806 145.207 151.638 145.625 150.292 146.066C149.851 146.182 149.596 146.669 149.55 147.574C149.503 148.455 149.503 149.407 149.55 150.404C149.596 151.402 149.573 152.469 149.457 153.583C149.457 153.907 149.503 154.418 149.619 155.091C149.735 155.763 149.782 156.204 149.782 156.436C161.15 156.668 170.894 156.877 179.014 157.109C181.125 157.225 183.074 157.666 184.86 158.455C185.533 158.687 186.113 159.127 186.623 159.8C187.134 160.473 187.366 161.076 187.366 161.633V163.976C187.366 167.201 186.878 169.823 185.95 171.818C184.999 173.813 183.027 175.321 180.011 176.319C179.454 176.551 177.691 176.69 174.745 176.736C171.798 176.783 169.084 176.922 166.648 177.154C164.189 177.386 162.983 177.827 162.983 178.499C162.867 179.056 162.913 179.938 163.145 181.167C163.377 182.397 163.47 183.279 163.47 183.835C163.47 183.951 163.516 184.903 163.632 186.666C163.748 188.452 163.794 189.612 163.794 190.169L184.674 191.515C184.558 192.953 184.489 195.876 184.419 200.284C184.35 204.692 184.002 208.103 183.329 210.562C183.213 211.003 182.818 211.513 182.169 212.07C181.496 212.627 180.939 212.905 180.498 212.905C178.944 213.021 172.471 213.067 161.126 213.067C158.551 213.067 154.839 213.021 149.944 212.905C145.049 212.789 141.314 212.743 138.762 212.743C134.632 212.743 128.438 212.766 120.132 212.835C111.826 212.882 105.632 212.928 101.503 212.928H87.9769C86.4225 212.928 85.2161 212.487 84.3809 211.583C83.5457 210.701 83.1281 209.518 83.1281 208.079C83.1281 207.639 83.1745 207.128 83.2905 206.571C83.2905 206.247 83.3833 205.087 83.5457 203.138C83.7081 201.189 83.9633 199.774 84.2881 198.869C85.1697 196.874 86.724 195.528 88.9744 194.855C90.9696 194.183 93.8465 193.463 97.5817 192.675C101.317 191.886 103.521 191.445 104.17 191.329C105.725 191.004 106.862 190.656 107.604 190.331C108.323 190.007 109.089 189.38 109.854 188.499C110.62 187.617 111.014 186.434 111.014 184.995C111.014 184.207 111.13 183.371 111.339 182.49C111.571 181.608 111.873 180.564 112.267 179.404C112.662 178.244 112.917 177.432 113.01 176.991C110.898 177.548 109.785 177.827 109.669 177.827C106.328 177.943 103.219 177.989 100.319 177.989H96.4681L96.4913 177.919ZM120.039 59.9938C132.289 59.1122 139.179 58.6018 140.757 58.4858C143.309 58.4858 146.162 59.3674 149.271 61.1538C149.944 61.4786 150.547 62.1746 151.104 63.2418C151.661 64.309 151.939 65.2834 151.939 66.165C151.823 73.0786 152.658 79.2498 154.445 84.7018C154.77 85.8154 157.484 87.5786 162.542 89.9682C167.599 92.3578 171.195 93.8426 173.306 94.3994C180.313 96.3018 189.175 98.9698 199.87 102.427C201.657 102.983 202.91 103.703 203.629 104.607C204.348 105.489 204.325 106.835 203.536 108.621C203.211 109.503 202.886 110.175 202.608 110.616C202.33 111.057 202.098 111.475 201.935 111.869C201.773 112.263 201.518 112.959 201.193 113.957C200.961 115.071 200.729 116.277 200.45 117.553C200.172 118.829 200.033 119.618 200.033 119.896C200.033 120.175 199.754 120.546 199.198 120.987C198.641 121.427 198.107 121.683 197.62 121.729C197.11 121.775 196.089 121.915 194.534 122.147C193.862 122.263 191.982 122.634 188.85 123.237C185.742 123.84 183.398 124.165 181.844 124.165C179.501 124.165 177.111 123.214 174.652 121.335C173.422 120.221 167.019 116.834 155.443 111.15C143.866 105.466 136.001 101.684 131.894 99.7818C129.783 98.9002 127.394 99.0626 124.703 100.292C119.459 102.519 113.126 105.698 105.655 109.804C102.198 111.707 98.3241 113.423 94.0553 114.978C89.7633 116.532 86.1673 117.205 83.2905 116.973C81.0633 116.741 79.5553 116.3 78.7897 115.627C78.0009 114.955 77.4441 113.516 77.1193 111.289C76.7945 109.387 76.2841 107.438 75.6113 105.443C75.0545 103.54 74.7296 102.079 74.6136 101.011C74.4976 99.9442 74.8688 98.9466 75.704 97.9954C76.5392 97.0442 77.3513 96.3482 78.1169 95.9074C78.8825 95.4666 80.46 94.6778 82.8032 93.5642C86.376 91.6618 92.3617 88.8082 100.76 84.957C109.158 81.1058 114.216 78.809 115.886 78.0202C117.789 77.1386 119.065 75.9322 119.738 74.4242C120.41 72.9162 120.805 70.9906 120.898 68.6706C120.898 68.3458 120.619 65.4458 120.063 59.9938H120.039ZM130.062 188.777C130.062 190.447 130.943 191.283 132.73 191.283H133.402C134.168 191.283 135.885 191.167 138.506 190.958C141.128 190.726 143.146 190.563 144.608 190.447C144.933 190.331 145.35 190.123 145.861 189.775C146.371 189.45 146.603 189.171 146.603 188.939C146.719 186.828 146.766 184.763 146.766 182.768C146.766 180.216 146.719 177.641 146.603 175.089C146.603 174.857 146.302 174.579 145.675 174.254C145.072 173.929 144.538 173.743 144.098 173.743H143.935C142.822 173.859 138.854 174.416 132.08 175.414C130.85 182.977 130.178 187.153 130.085 187.942V188.777H130.062Z" fill="#578246"/>
<path d="M97.1143 187.199C96.4415 187.199 95.4903 187.246 94.2839 187.362C93.0543 187.478 92.1727 187.524 91.6159 187.524C89.5047 187.524 87.9735 186.967 87.0223 185.854C86.0711 184.74 85.6071 182.954 85.6071 180.518C85.6071 179.845 86.0015 176.342 86.7671 169.985C94.5623 167.433 102.195 166.134 109.642 166.134C110.199 166.134 111.034 166.157 112.148 166.226C113.262 166.273 114.143 166.319 114.816 166.319L126.509 165.646C126.068 164.649 125.813 163.28 125.766 161.563C125.697 159.846 125.511 158.501 125.186 157.55C124.861 156.598 124.119 156.065 123.005 155.972C121.335 155.647 114.491 155.322 102.45 155.044C90.4326 154.766 83.4031 154.742 81.4079 154.951C78.8559 155.392 76.6519 155.531 74.8191 155.369C72.9863 155.206 71.6175 154 70.7359 151.773C69.0655 148.107 68.5551 143.978 69.2279 139.407C69.4599 138.294 70.3879 137.18 72.0583 136.066C73.7287 134.953 77.6263 134.071 83.7511 133.398C89.8759 132.726 94.2142 132.61 96.7894 133.074H117.762C121.706 133.074 124.467 133.027 126.021 132.911C146.507 132.679 158.316 132.586 161.425 132.586C164.533 132.586 171.331 132.865 181.794 133.422C192.257 133.978 197.779 134.257 198.336 134.257C198.893 134.257 199.89 134.419 201.352 134.767C203.695 135.324 205.273 136.136 206.108 137.18C206.943 138.247 207.198 139.941 206.85 142.284C206.734 143.166 206.618 143.954 206.526 144.627C206.41 145.3 206.293 145.903 206.201 146.46C206.085 147.017 205.876 147.481 205.528 147.875C205.203 148.27 204.971 148.618 204.855 148.966C204.739 149.29 204.414 149.615 203.858 149.894C203.301 150.172 202.883 150.404 202.605 150.566C202.326 150.729 201.769 150.938 200.934 151.146C200.099 151.378 199.496 151.541 199.101 151.657C198.707 151.773 197.895 151.982 196.689 152.33C195.482 152.678 194.508 152.886 193.858 153.002C192.629 153.327 185.506 153.698 172.468 154.093C159.43 154.487 152.261 154.905 150.915 155.346C150.474 155.462 150.219 155.949 150.173 156.854C150.126 157.735 150.126 158.686 150.173 159.684C150.219 160.682 150.196 161.749 150.08 162.862C150.08 163.187 150.126 163.698 150.242 164.37C150.358 165.043 150.405 165.484 150.405 165.716C161.773 165.948 171.517 166.157 179.637 166.389C181.748 166.505 183.697 166.946 185.483 167.734C186.156 167.966 186.736 168.407 187.246 169.08C187.757 169.753 187.989 170.356 187.989 170.913V173.256C187.989 176.481 187.525 179.102 186.573 181.098C185.622 183.093 183.65 184.601 180.634 185.598C180.077 185.83 178.314 185.97 175.368 186.016C172.422 186.062 169.707 186.202 167.271 186.434C164.812 186.666 163.605 187.106 163.605 187.779C163.489 188.336 163.559 189.218 163.768 190.447C164 191.677 164.093 192.558 164.093 193.115C164.093 193.231 164.139 194.182 164.255 195.946C164.371 197.732 164.418 198.892 164.418 199.449L185.298 200.794C185.182 202.233 185.112 205.156 185.042 209.564C184.996 213.972 184.625 217.382 183.952 219.842C183.836 220.282 183.441 220.793 182.792 221.35C182.119 221.906 181.562 222.185 181.121 222.185C179.567 222.301 173.094 222.347 161.749 222.347C159.197 222.347 155.462 222.301 150.567 222.185C145.672 222.069 141.937 222.022 139.385 222.022C135.255 222.022 129.061 222.046 120.755 222.115C112.449 222.162 106.255 222.208 102.125 222.208H88.5998C87.0454 222.208 85.8391 221.767 85.0039 220.862C84.1687 219.981 83.7511 218.798 83.7511 217.359C83.7511 216.918 83.7975 216.408 83.9135 215.851C83.9135 215.526 84.0063 214.366 84.1687 212.418C84.3311 210.469 84.5863 209.054 84.9111 208.149C85.7927 206.154 87.3703 204.808 89.5975 204.135C91.5927 203.462 94.4695 202.743 98.2047 201.954C101.94 201.166 104.144 200.725 104.793 200.609C106.348 200.284 107.485 199.936 108.227 199.611C108.946 199.286 109.712 198.66 110.478 197.778C111.243 196.897 111.638 195.714 111.638 194.275C111.638 193.486 111.753 192.651 111.962 191.77C112.194 190.888 112.496 189.844 112.89 188.684C113.285 187.524 113.54 186.712 113.633 186.271C111.521 186.828 110.408 187.106 110.292 187.106C106.951 187.222 103.842 187.269 100.942 187.269H97.0911L97.1143 187.199ZM120.662 69.2736C132.912 68.392 139.802 67.8816 141.38 67.7656C143.932 67.7656 146.785 68.6472 149.894 70.4336C150.567 70.7584 151.17 71.4544 151.727 72.5216C152.284 73.5888 152.562 74.5632 152.562 75.4448C152.446 82.3584 153.282 88.5296 155.068 93.9816C155.393 95.0952 158.107 96.8584 163.165 99.248C168.222 101.638 171.818 103.122 173.929 103.679C180.936 105.582 189.798 108.25 200.493 111.706C202.28 112.263 203.533 112.982 204.252 113.887C204.971 114.769 204.948 116.114 204.159 117.901C203.834 118.782 203.509 119.455 203.231 119.896C202.953 120.337 202.721 120.754 202.558 121.149C202.396 121.543 202.141 122.239 201.816 123.237C201.584 124.35 201.329 125.557 201.073 126.833C200.795 128.109 200.656 128.898 200.656 129.176C200.656 129.454 200.377 129.826 199.821 130.266C199.264 130.707 198.73 130.962 198.243 131.009C197.733 131.055 196.712 131.194 195.158 131.426C194.485 131.542 192.582 131.914 189.473 132.517C186.365 133.12 184.022 133.445 182.467 133.445C180.124 133.445 177.734 132.494 175.275 130.614C174.045 129.501 167.642 126.114 156.065 120.43C144.489 114.746 136.624 110.964 132.518 109.062C130.406 108.18 128.017 108.342 125.325 109.572C120.082 111.799 113.749 114.978 106.278 119.084C102.822 120.986 98.9471 122.703 94.6783 124.258C90.3863 125.812 86.7903 126.485 83.9135 126.253C81.6863 126.021 80.1783 125.58 79.4127 124.907C78.6239 124.234 78.0671 122.796 77.7423 120.569C77.4175 118.666 76.9071 116.718 76.2343 114.722C75.6775 112.82 75.3527 111.358 75.2367 110.291C75.1207 109.224 75.4919 108.226 76.3271 107.275C77.1623 106.324 77.9742 105.628 78.7398 105.187C79.5286 104.746 81.0831 103.958 83.4263 102.844C86.9991 100.942 92.9847 98.088 101.383 94.2368C109.781 90.3856 114.839 88.0888 116.509 87.3C118.412 86.4184 119.688 85.212 120.361 83.704C121.033 82.196 121.428 80.2704 121.521 77.9504C121.521 77.6256 121.242 74.7256 120.685 69.2736H120.662ZM130.685 198.057C130.685 199.727 131.566 200.562 133.353 200.562H134.025C134.814 200.562 136.508 200.446 139.129 200.238C141.751 200.006 143.769 199.843 145.231 199.727C145.556 199.611 145.973 199.402 146.484 199.054C146.994 198.706 147.226 198.451 147.226 198.219C147.342 196.108 147.389 194.043 147.389 192.048C147.389 189.496 147.342 186.921 147.226 184.369C147.226 184.137 146.925 183.858 146.298 183.534C145.672 183.209 145.161 183.023 144.721 183.023H144.558C143.445 183.139 139.501 183.696 132.703 184.694C131.473 192.257 130.801 196.433 130.708 197.222V198.057H130.685Z" fill="white"/>
</svg>
