<svg width="158" height="175" viewBox="0 0 158 175" fill="none" xmlns="http://www.w3.org/2000/svg">
<path d="M27.6609 20.9175C27.6609 20.9175 3.30091 30.9631 1.07371 65.5543C-1.15349 100.145 2.18729 134.899 8.14969 149.515C14.1121 164.131 26.0137 173.805 50.1881 173.805C74.3625 173.805 89.2569 172.506 112.318 173.805C126.145 174.594 143.568 176.404 152.871 154.828C162.174 133.252 156.955 63.6983 148.974 39.1295C143.707 22.9591 131.829 10.1527 90.3937 11.9623C52.0673 13.6327 43.1585 13.6327 27.7073 20.8943L27.6609 20.9175Z" fill="#C18E1B"/>
<path d="M27.6609 9.31789C27.6609 9.31789 3.30091 19.3635 1.07371 53.9547C-1.15349 88.5459 2.18729 123.299 8.14969 137.915C14.1121 152.531 26.0137 162.206 50.1881 162.206C74.3625 162.206 89.2569 160.907 112.318 162.206C126.145 162.995 143.568 164.804 152.871 143.228C162.174 121.652 156.955 52.0987 148.974 27.5299C143.707 11.3595 131.829 -1.4469 90.3937 0.362698C52.0673 2.0331 43.1585 2.03309 27.7073 9.29469L27.6609 9.31789Z" fill="#FED054"/>
<path d="M57.2424 38.0158C57.8224 38.0854 58.7272 38.2014 59.98 38.4102C61.2096 38.5958 62.3232 38.7814 63.2976 38.9438C64.272 39.1062 65.1768 39.315 66.0352 39.5702C66.2904 39.7094 67.2648 40.0342 68.912 40.5446C70.5592 41.055 71.696 41.4262 72.276 41.6118C72.856 41.7974 73.784 42.1222 75.06 42.5862C76.336 43.0502 77.4032 43.491 78.3312 43.9086C79.236 44.3262 80.1408 44.767 81.0688 45.231C84.456 47.1102 86.6368 49.639 87.6344 52.8406C88.632 56.019 88.516 59.4062 87.2864 62.979C85.6624 68.315 83.7136 73.2334 81.44 77.7806C80.86 78.8942 80.0248 79.915 78.9576 80.8894C77.8904 81.8638 76.8 82.5366 75.6864 82.931C67.8216 85.6686 61.8824 87.1766 57.8456 87.5014C51.6048 88.0118 46.5704 86.5038 42.7424 82.931C40.4688 80.7966 38.868 77.3398 37.9632 72.607C35.7592 60.9142 38.5896 50.9846 46.4312 42.795C49.3544 39.7326 52.9504 38.155 57.2424 38.0158ZM99.8144 107.384C89.8848 108.683 84.5488 109.402 83.8296 109.518C79.932 110.098 72.6472 110.562 61.952 110.887C51.2568 111.212 43.9024 111.073 39.8888 110.493C39.4944 110.423 39.1 110.191 38.6592 109.82C38.2416 109.425 38.0328 109.077 38.0328 108.753C37.7776 104.994 37.7776 101.932 38.0328 99.5886C38.172 97.9646 38.8448 96.039 40.0744 93.835C44.2968 92.675 47.22 92.0254 48.844 91.8862C50.004 91.7006 55.572 91.7702 65.548 92.1182C75.524 92.4662 80.9992 92.6518 81.9736 92.6518C83.2032 92.5822 85.0592 92.5358 87.5184 92.5126C89.9776 92.4894 91.8336 92.443 93.0632 92.3734L100.07 91.7006C100.534 80.6574 100.789 74.5558 100.858 73.3726L102.413 37.0182C102.598 36.763 102.923 36.4614 103.387 36.1366C103.851 35.8118 104.849 35.3478 106.403 34.7678C107.958 34.1878 109.582 33.8166 111.275 33.7006C112.11 33.631 113.201 33.7006 114.5 33.8398C115.799 34.0022 116.913 34.211 117.818 34.4662L119.186 34.7678C119.442 35.023 119.79 35.3478 120.207 35.6958C120.625 36.0438 121.112 36.763 121.669 37.8302C122.226 38.8974 122.365 39.895 122.11 40.7998C121.205 43.5374 120.509 52.6318 120.068 68.1294C119.604 83.627 119.326 91.863 119.186 92.8374C119.117 93.6262 119.094 95.1574 119.14 97.4542C119.163 99.751 119.047 101.282 118.792 101.978C118.606 102.767 118.537 105.041 118.653 108.799C118.769 112.557 118.653 114.785 118.398 115.434C117.818 117.244 117.006 118.497 115.962 119.146C114.918 119.796 113.386 120.121 111.391 120.121C108.074 120.051 105.614 119.889 103.99 119.633C101.717 119.169 100.719 117.87 100.974 115.736C101.044 115.225 100.858 113.903 100.441 111.792C100.023 109.681 99.8144 108.196 99.8144 107.361V107.384ZM70.0024 62.9558C70.0024 60.1022 69.4456 58.0606 68.3552 56.8078C67.2416 55.5782 65.4552 54.9518 62.996 54.9518C60.1424 54.9518 57.6136 56.0654 55.3864 58.3158C53.1824 60.5662 52.0456 63.1414 51.976 66.0646C51.976 67.6886 52.9736 69.4054 54.992 71.1918C57.0104 72.9782 58.9128 73.767 60.7456 73.5814C63.1584 73.3262 65.2928 72.2126 67.172 70.2638C69.0512 68.315 70.0024 65.879 70.0024 62.9558Z" fill="#C18E1B"/>
<path d="M57.2424 44.9753C57.8224 45.0449 58.7272 45.1609 59.98 45.3697C61.2096 45.5553 62.3232 45.7409 63.2976 45.9033C64.272 46.0657 65.1768 46.2745 66.0352 46.5297C66.2904 46.6689 67.2648 46.9937 68.912 47.5041C70.5592 48.0145 71.696 48.3857 72.276 48.5713C72.856 48.7569 73.784 49.0817 75.06 49.5457C76.336 50.0097 77.4032 50.4505 78.3312 50.8681C79.236 51.2857 80.1408 51.7265 81.0688 52.1905C84.456 54.0697 86.6368 56.5985 87.6344 59.8001C88.632 62.9785 88.516 66.3657 87.2864 69.9385C85.6624 75.2745 83.7136 80.1929 81.44 84.7401C80.86 85.8537 80.0248 86.8745 78.9576 87.8489C77.8904 88.8233 76.8 89.4961 75.6864 89.8905C67.8216 92.6281 61.8824 94.1361 57.8456 94.4609C51.6048 94.9713 46.5704 93.4633 42.7424 89.8905C40.4688 87.7561 38.868 84.2993 37.9632 79.5665C35.7592 67.8737 38.5896 57.9441 46.4312 49.7545C49.3544 46.6921 52.9504 45.1145 57.2424 44.9753ZM99.8144 114.343C89.8848 115.643 84.5488 116.362 83.8296 116.478C79.932 117.058 72.6472 117.522 61.952 117.847C51.2568 118.171 43.9024 118.032 39.8888 117.452C39.4944 117.383 39.1 117.151 38.6592 116.779C38.2416 116.385 38.0328 116.037 38.0328 115.712C37.7776 111.954 37.7776 108.891 38.0328 106.548C38.172 104.924 38.8448 102.999 40.0744 100.795C44.2968 99.6345 47.22 98.9849 48.844 98.8457C50.004 98.6601 55.572 98.7297 65.548 99.0777C75.524 99.4257 80.9992 99.6113 81.9736 99.6113C83.2032 99.5417 85.0592 99.4953 87.5184 99.4721C89.9776 99.4489 91.8336 99.4025 93.0632 99.3329L100.07 98.6601C100.534 87.6169 100.789 81.5153 100.858 80.3321L102.413 43.9777C102.598 43.7225 102.923 43.4209 103.387 43.0961C103.851 42.7713 104.849 42.3073 106.403 41.7273C107.958 41.1473 109.582 40.7761 111.275 40.6601C112.11 40.5905 113.201 40.6601 114.5 40.7993C115.799 40.9617 116.913 41.1705 117.818 41.4257L119.186 41.7273C119.442 41.9825 119.79 42.3073 120.207 42.6553C120.625 43.0033 121.112 43.7225 121.669 44.7897C122.226 45.8569 122.365 46.8545 122.11 47.7593C121.205 50.4969 120.509 59.5913 120.068 75.0889C119.604 90.5865 119.326 98.8225 119.186 99.7969C119.117 100.586 119.094 102.117 119.14 104.414C119.163 106.711 119.047 108.242 118.792 108.938C118.606 109.727 118.537 112 118.653 115.759C118.769 119.517 118.653 121.744 118.398 122.394C117.818 124.203 117.006 125.456 115.962 126.106C114.918 126.755 113.386 127.08 111.391 127.08C108.074 127.011 105.614 126.848 103.99 126.593C101.717 126.129 100.719 124.83 100.974 122.695C101.044 122.185 100.858 120.863 100.441 118.751C100.023 116.64 99.8144 115.155 99.8144 114.32V114.343ZM70.0024 69.9153C70.0024 67.0617 69.4456 65.0201 68.3552 63.7673C67.2416 62.5377 65.4552 61.9113 62.996 61.9113C60.1424 61.9113 57.6136 63.0249 55.3864 65.2753C53.1824 67.5257 52.0456 70.1009 51.976 73.0241C51.976 74.6481 52.9736 76.3649 54.992 78.1513C57.0104 79.9377 58.9128 80.7265 60.7456 80.5409C63.1584 80.2857 65.2928 79.1721 67.172 77.2233C69.0512 75.2745 70.0024 72.8385 70.0024 69.9153Z" fill="white"/>
</svg>
